<?xml version="1.0" encoding="iso-8859-1"?>
<!-- Generator: Adobe Illustrator 19.0.0, SVG Export Plug-In . SVG Version: 6.00 Build 0)  -->
<svg version="1.1" id="Capa_1" xmlns="http://www.w3.org/2000/svg" xmlns:xlink="http://www.w3.org/1999/xlink" x="0px" y="0px"
	 viewBox="0 0 512.001 512.001" style="enable-background:new 0 0 512.001 512.001;" xml:space="preserve">
<g>
	<g>
		<path d="M437.02,74.982C388.668,26.629,324.38,0.001,256,0.001c-68.38,0-132.668,26.629-181.02,74.98S0,187.62,0,256
			s26.629,132.668,74.98,181.02S187.62,512,256,512c68.38,0,132.668-26.629,181.02-74.979
			c48.353-48.352,74.982-112.639,74.982-181.02S485.372,123.334,437.02,74.982z M256,481.281c-124.22,0-225.28-101.06-225.28-225.28
			S131.78,30.72,256,30.72S481.28,131.781,481.28,256S380.22,481.281,256,481.281z"/>
	</g>
</g>
<g>
	<g>
		<path d="M398.124,201.726c-29.926,0-54.274,24.347-54.274,54.274c0,29.927,24.347,54.274,54.274,54.274
			c29.927,0,54.274-24.347,54.274-54.274S428.05,201.726,398.124,201.726z M398.124,279.555c-12.988,0-23.555-10.567-23.555-23.555
			c0-12.988,10.567-23.555,23.555-23.555c12.988,0,23.555,10.567,23.555,23.555C421.679,268.989,411.113,279.555,398.124,279.555z"
			/>
	</g>
</g>
<g>
	<g>
		<path d="M256,201.726c-29.927,0-54.274,24.347-54.274,54.274c0,29.927,24.347,54.274,54.274,54.274s54.274-24.347,54.274-54.274
			S285.927,201.726,256,201.726z M256,279.555c-12.988,0-23.555-10.567-23.555-23.555c0-12.988,10.567-23.555,23.555-23.555
			c12.988,0,23.555,10.567,23.555,23.555C279.555,268.989,268.988,279.555,256,279.555z"/>
	</g>
</g>
<g>
	<g>
		<path d="M113.876,201.726c-29.927,0-54.274,24.347-54.274,54.274c0,29.927,24.347,54.274,54.274,54.274S168.15,285.928,168.15,256
			S143.803,201.726,113.876,201.726z M113.876,279.555c-12.988,0-23.555-10.567-23.555-23.555c0-12.988,10.567-23.555,23.555-23.555
			c12.988,0,23.555,10.567,23.555,23.555C137.43,268.989,126.864,279.555,113.876,279.555z"/>
	</g>
</g>
<g>
</g>
<g>
</g>
<g>
</g>
<g>
</g>
<g>
</g>
<g>
</g>
<g>
</g>
<g>
</g>
<g>
</g>
<g>
</g>
<g>
</g>
<g>
</g>
<g>
</g>
<g>
</g>
<g>
</g>
</svg>
