<?xml version="1.0" encoding="iso-8859-1"?>
<!-- Generator: Adobe Illustrator 19.0.0, SVG Export Plug-In . SVG Version: 6.00 Build 0)  -->
<svg version="1.1" id="Capa_1" xmlns="http://www.w3.org/2000/svg" xmlns:xlink="http://www.w3.org/1999/xlink" x="0px" y="0px"
	 viewBox="0 0 512.001 512.001" style="enable-background:new 0 0 512.001 512.001;" xml:space="preserve">
<g>
	<g>
		<path d="M73.018,365.963C32.756,365.963,0,398.719,0,438.982C0,479.245,32.756,512,73.018,512
			c40.263,0,73.019-32.756,73.019-73.018C146.038,398.718,113.281,365.963,73.018,365.963z M73.018,481.843
			c-23.634,0-42.861-19.227-42.861-42.861c0-23.634,19.227-42.862,42.861-42.862c23.634,0,42.862,19.228,42.862,42.862
			C115.881,462.616,96.652,481.843,73.018,481.843z"/>
	</g>
</g>
<g>
	<g>
		<path d="M240.011,271.988c-60.081-60.08-139.963-93.168-224.93-93.168c-8.327,0-15.078,6.751-15.078,15.079v81.324
			c0,8.327,6.751,15.078,15.078,15.078c113.93,0,206.618,92.689,206.618,206.618c0,8.327,6.751,15.078,15.079,15.078h81.324
			c8.327,0,15.079-6.751,15.079-15.078C333.181,411.952,300.092,332.07,240.011,271.988z M251.381,481.84
			C243.889,363.275,148.726,268.111,30.16,260.619v-51.256c71.247,3.65,137.709,33.134,188.527,83.95
			c50.817,50.817,80.3,117.28,83.95,188.527H251.381z"/>
	</g>
</g>
<g>
	<g>
		<path d="M472.928,303.479c-25.031-59.18-60.853-112.317-106.471-157.934c-45.618-45.619-98.753-81.44-157.935-106.472
			C147.223,13.147,82.14,0.001,15.082,0.001c-8.327,0-15.079,6.751-15.079,15.079v81.324c0,8.327,6.751,15.079,15.079,15.079
			c212.531,0,385.438,172.907,385.438,385.438c0,8.327,6.751,15.078,15.079,15.078h81.324c8.327,0,15.079-6.751,15.08-15.078
			C512.001,429.861,498.855,364.779,472.928,303.479z M430.407,481.84C422.619,264.646,247.354,89.381,30.16,81.594v-51.2
			c57.678,1.814,113.654,14.055,166.614,36.455C252.36,90.36,302.275,124.012,345.132,166.87
			c42.858,42.856,76.51,92.771,100.021,148.357c22.4,52.959,34.639,108.935,36.454,166.614H430.407z"/>
	</g>
</g>
<g>
</g>
<g>
</g>
<g>
</g>
<g>
</g>
<g>
</g>
<g>
</g>
<g>
</g>
<g>
</g>
<g>
</g>
<g>
</g>
<g>
</g>
<g>
</g>
<g>
</g>
<g>
</g>
<g>
</g>
</svg>
