<?xml version="1.0" encoding="iso-8859-1"?>
<!-- Generator: Adobe Illustrator 19.0.0, SVG Export Plug-In . SVG Version: 6.00 Build 0)  -->
<svg version="1.1" id="Capa_1" xmlns="http://www.w3.org/2000/svg" xmlns:xlink="http://www.w3.org/1999/xlink" x="0px" y="0px"
	 viewBox="0 0 511.999 511.999" style="enable-background:new 0 0 511.999 511.999;" xml:space="preserve">
<g>
	<g>
		<path d="M351.886,112.304c-0.034,0-0.068,0.005-0.102,0.005c-0.379-0.007-0.83,0.015-1.363,0.069
			c-0.05,0.005-0.1,0.009-0.149,0.014c-0.048,0.005-0.09,0.008-0.139,0.013l-155.427,18.138c-0.37,0.043-0.709,0.101-1.032,0.165
			c-7.018,1.308-12.333,7.454-12.333,14.851v163.796c-5.691-2.338-11.915-3.637-18.439-3.637c-26.839,0-48.675,21.835-48.675,48.675
			c0,26.839,21.835,48.675,48.675,48.675c26.839,0,48.675-21.835,48.675-48.675V215.417l125.191-14.609v90.409
			c-5.691-2.338-11.915-3.637-18.439-3.637c-26.839,0-48.675,21.835-48.675,48.675c0,26.839,21.835,48.675,48.675,48.675
			c26.839,0,48.675-21.835,48.675-48.675V127.422C367.004,119.073,360.235,112.304,351.886,112.304z M162.902,372.832
			c-10.167,0-18.439-8.271-18.439-18.439s8.271-18.439,18.439-18.439s18.439,8.272,18.439,18.439S173.07,372.832,162.902,372.832z
			 M318.33,354.693c-10.167,0-18.439-8.272-18.439-18.439s8.271-18.439,18.439-18.439s18.439,8.272,18.439,18.439
			S328.497,354.693,318.33,354.693z M336.768,170.366l-125.191,14.61v-25.96l125.191-14.61V170.366z"/>
	</g>
</g>
<g>
	<g>
		<path d="M437.019,74.981C388.667,26.629,324.38,0,256,0S123.333,26.629,74.981,74.981S0,187.62,0,256
			s26.629,132.668,74.981,181.019C123.333,485.37,187.62,511.999,256,511.999s132.668-26.629,181.019-74.981
			C485.37,388.666,511.999,324.379,511.999,256S485.371,123.333,437.019,74.981z M256,481.764
			C131.513,481.764,30.236,380.487,30.236,256S131.513,30.236,256,30.236S481.763,131.513,481.763,256S380.487,481.764,256,481.764z
			"/>
	</g>
</g>
<g>
</g>
<g>
</g>
<g>
</g>
<g>
</g>
<g>
</g>
<g>
</g>
<g>
</g>
<g>
</g>
<g>
</g>
<g>
</g>
<g>
</g>
<g>
</g>
<g>
</g>
<g>
</g>
<g>
</g>
</svg>
