<?xml version="1.0" encoding="iso-8859-1"?>
<!-- Generator: Adobe Illustrator 19.0.0, SVG Export Plug-In . SVG Version: 6.00 Build 0)  -->
<svg version="1.1" id="Capa_1" xmlns="http://www.w3.org/2000/svg" xmlns:xlink="http://www.w3.org/1999/xlink" x="0px" y="0px"
	 viewBox="0 0 512 512" style="enable-background:new 0 0 512 512;" xml:space="preserve">
<g>
	<g>
		<path d="M511.806,308.587c0-19.227-10.331-36.087-25.733-45.321c5.901-8.521,9.362-18.858,9.362-29.985
			c0-29.113-23.686-52.799-52.799-52.799H331.178c3.416-15.48,8.088-38.709,11.341-63.026c8.466-63.281,2.68-98.376-18.207-110.445
			c-13.022-7.523-27.062-9.049-39.534-4.301c-9.635,3.67-22.647,12.693-30.062,34.838l-29.294,76.701
			c-19.428,47.983-91.283,99.097-108.29,110.698H15.341c-8.365,0-15.146,6.782-15.146,15.146v222.458
			c0,8.365,6.782,15.146,15.146,15.146h103.523C176.572,500.456,237.28,512,299.359,512h121.446
			c29.113,0,52.799-23.686,52.799-52.799c0-10.195-2.905-19.725-7.93-27.804c17.601-8.572,29.759-26.646,29.759-47.503
			c0-11.128-3.461-21.464-9.362-29.985C501.475,344.675,511.806,327.814,511.806,308.587z M106.594,447.406H30.487V255.241h76.107
			V447.406z M459.006,331.094h-16.371c-8.365,0-15.146,6.782-15.146,15.146c0,8.365,6.782,15.146,15.146,15.146
			c12.41,0,22.507,10.097,22.507,22.508c0,12.41-10.097,22.507-22.507,22.507h-21.829c-8.365,0-15.146,6.782-15.146,15.146
			s6.782,15.146,15.146,15.146c12.41,0,22.507,10.097,22.507,22.507s-10.097,22.507-22.507,22.507H299.36
			c-55.784,0-110.388-9.925-162.472-29.517V248.154c22.873-15.78,94.897-68.646,116.683-122.707
			c0.034-0.086,0.068-0.172,0.101-0.258l29.463-77.143c0.083-0.216,0.161-0.435,0.232-0.654c2.857-8.65,7.187-14.465,12.195-16.372
			c4.856-1.851,10.074,0.186,13.595,2.221c0.13,0.075,12.765,9.498,3.369,79.966c-5.337,40.021-15.03,78.299-15.126,78.681
			c-1.155,4.531-0.15,9.342,2.717,13.034c2.87,3.692,7.283,5.853,11.96,5.853h130.561c12.41,0,22.507,10.097,22.507,22.507
			c0,12.41-10.097,22.507-22.507,22.507c-8.365,0-15.146,6.782-15.146,15.146c0,8.365,6.782,15.146,15.146,15.146h16.371
			c12.41,0,22.507,10.097,22.507,22.507C481.515,320.997,471.416,331.094,459.006,331.094z"/>
	</g>
</g>
<g>
</g>
<g>
</g>
<g>
</g>
<g>
</g>
<g>
</g>
<g>
</g>
<g>
</g>
<g>
</g>
<g>
</g>
<g>
</g>
<g>
</g>
<g>
</g>
<g>
</g>
<g>
</g>
<g>
</g>
</svg>
