<?xml version="1.0" encoding="iso-8859-1"?>
<!-- Generator: Adobe Illustrator 19.0.0, SVG Export Plug-In . SVG Version: 6.00 Build 0)  -->
<svg version="1.1" id="Capa_1" xmlns="http://www.w3.org/2000/svg" xmlns:xlink="http://www.w3.org/1999/xlink" x="0px" y="0px"
	 viewBox="0 0 512 512" style="enable-background:new 0 0 512 512;" xml:space="preserve">
<g>
	<g>
		<path d="M445.481,86.676H66.519C29.84,86.676,0,116.516,0,153.195v205.61c0,36.679,29.84,66.519,66.519,66.519h378.962
			c36.678,0,66.519-29.84,66.519-66.518V153.195C512,116.516,482.16,86.676,445.481,86.676z M481.764,358.806
			c0,20.007-16.276,36.283-36.283,36.283H66.519c-20.007,0-36.283-16.276-36.283-36.283V153.195
			c0-20.007,16.276-36.283,36.283-36.283h378.962c20.007,0,36.283,16.276,36.283,36.283V358.806z"/>
	</g>
</g>
<g>
	<g>
		<path d="M353.259,242.908l-144.544-83.452c-4.677-2.701-10.44-2.701-15.118,0c-4.677,2.7-7.559,7.691-7.559,13.092v166.904
			c0,5.401,2.881,10.392,7.559,13.092c2.338,1.351,4.949,2.026,7.559,2.026s5.221-0.675,7.559-2.026l144.544-83.452
			c4.677-2.7,7.559-7.691,7.559-13.092S357.936,245.608,353.259,242.908z M216.274,313.268V198.733l99.19,57.268L216.274,313.268z"
			/>
	</g>
</g>
<g>
</g>
<g>
</g>
<g>
</g>
<g>
</g>
<g>
</g>
<g>
</g>
<g>
</g>
<g>
</g>
<g>
</g>
<g>
</g>
<g>
</g>
<g>
</g>
<g>
</g>
<g>
</g>
<g>
</g>
</svg>
