<?xml version="1.0" encoding="iso-8859-1"?>
<!-- Generator: Adobe Illustrator 19.0.0, SVG Export Plug-In . SVG Version: 6.00 Build 0)  -->
<svg version="1.1" id="Capa_1" xmlns="http://www.w3.org/2000/svg" xmlns:xlink="http://www.w3.org/1999/xlink" x="0px" y="0px"
	 viewBox="0 0 512 512" style="enable-background:new 0 0 512 512;" xml:space="preserve">
<g>
	<g>
		<g>
			<path d="M317.474,179.409H194.526c-8.349,0-15.118,6.769-15.118,15.118v122.948c0,8.349,6.769,15.118,15.118,15.118h122.947
				c8.349,0,15.118-6.769,15.118-15.118V194.526C332.591,186.177,325.823,179.409,317.474,179.409z M302.356,302.357h-92.712
				v-92.713h92.712V302.357z"/>
			<path d="M453.966,302.357h-35.544v-92.713h35.544c32,0,58.034-26.034,58.034-58.033c0-32-26.034-58.034-58.034-58.034h-35.544
				V58.034c0-32-26.034-58.034-58.034-58.034c-31.999,0-58.033,26.034-58.033,58.034v35.544h-92.712V58.034
				c0-32-26.034-58.034-58.033-58.034c-32,0-58.034,26.034-58.034,58.034v35.544H58.034c-32,0-58.034,26.034-58.034,58.034
				c0,31.999,26.034,58.033,58.034,58.033h35.544v92.713H58.034c-32,0-58.034,26.034-58.034,58.033
				c0,32,26.034,58.034,58.034,58.034h35.544v35.543c0,32,26.034,58.034,58.034,58.034c31.999,0,58.033-26.034,58.033-58.034
				v-35.543h92.712v35.543c0,32,26.034,58.034,58.033,58.034c32,0,58.034-26.034,58.034-58.034v-35.543h35.544
				c32,0,58.034-26.034,58.034-58.034C512,328.391,485.966,302.357,453.966,302.357z M453.966,388.188h-50.661
				c-8.349,0-15.118,6.769-15.118,15.118v50.66c0,15.328-12.47,27.798-27.798,27.798c-15.327,0-27.797-12.47-27.797-27.798v-50.66
				c0-8.349-6.769-15.118-15.118-15.118H194.526c-8.349,0-15.118,6.769-15.118,15.118v50.66c0,15.328-12.47,27.798-27.797,27.798
				c-15.328,0-27.798-12.47-27.798-27.798v-50.66c0-8.349-6.769-15.118-15.118-15.118H58.034c-15.328,0-27.798-12.47-27.798-27.798
				c0-15.327,12.47-27.797,27.798-27.797h50.661c8.349,0,15.118-6.769,15.118-15.118V194.526c0-8.349-6.769-15.118-15.118-15.118
				H58.034c-15.328,0-27.798-12.47-27.798-27.797c0-15.328,12.47-27.798,27.798-27.798h50.661c8.349,0,15.118-6.769,15.118-15.118
				V58.034c0-15.328,12.47-27.798,27.798-27.798c15.327,0,27.797,12.47,27.797,27.798v50.661c0,8.349,6.769,15.118,15.118,15.118
				h122.947c8.349,0,15.118-6.769,15.118-15.118V58.034c0-15.328,12.47-27.798,27.797-27.798c15.328,0,27.798,12.47,27.798,27.798
				v50.661c0,8.349,6.769,15.118,15.118,15.118h50.661c15.328,0,27.798,12.47,27.798,27.798c0,15.327-12.47,27.797-27.798,27.797
				h-50.661c-8.349,0-15.118,6.769-15.118,15.118v122.948c0,8.349,6.769,15.118,15.118,15.118h50.661
				c15.328,0,27.798,12.47,27.798,27.797C481.765,375.718,469.294,388.188,453.966,388.188z"/>
		</g>
	</g>
</g>
<g>
</g>
<g>
</g>
<g>
</g>
<g>
</g>
<g>
</g>
<g>
</g>
<g>
</g>
<g>
</g>
<g>
</g>
<g>
</g>
<g>
</g>
<g>
</g>
<g>
</g>
<g>
</g>
<g>
</g>
</svg>
