<?xml version="1.0" encoding="iso-8859-1"?>
<!-- Generator: Adobe Illustrator 19.0.0, SVG Export Plug-In . SVG Version: 6.00 Build 0)  -->
<svg version="1.1" id="Capa_1" xmlns="http://www.w3.org/2000/svg" xmlns:xlink="http://www.w3.org/1999/xlink" x="0px" y="0px"
	 viewBox="0 0 512 512" style="enable-background:new 0 0 512 512;" xml:space="preserve">
<g>
	<g>
		<path d="M371.643,0H140.357C62.965,0,0.001,62.964,0.001,140.358v231.285C0.001,449.036,62.965,512,140.357,512h231.285
			C449.035,512,512,449.036,512,371.642V140.358C512,62.964,449.036,0,371.643,0z M240.882,481.764H140.357
			c-60.721,0-110.121-49.4-110.121-110.122V140.358c0-60.722,49.4-110.122,110.121-110.122h100.525V481.764z M481.765,371.642
			c0,60.722-49.4,110.122-110.122,110.122H271.118V271.121h210.647V371.642z M481.765,240.886H271.118V30.236h100.525
			c60.722,0,110.122,49.4,110.122,110.122V240.886z"/>
	</g>
</g>
<g>
</g>
<g>
</g>
<g>
</g>
<g>
</g>
<g>
</g>
<g>
</g>
<g>
</g>
<g>
</g>
<g>
</g>
<g>
</g>
<g>
</g>
<g>
</g>
<g>
</g>
<g>
</g>
<g>
</g>
</svg>
