<?xml version="1.0" encoding="iso-8859-1"?>
<!-- Generator: Adobe Illustrator 19.0.0, SVG Export Plug-In . SVG Version: 6.00 Build 0)  -->
<svg version="1.1" id="Capa_1" xmlns="http://www.w3.org/2000/svg" xmlns:xlink="http://www.w3.org/1999/xlink" x="0px" y="0px"
	 viewBox="0 0 511.999 511.999" style="enable-background:new 0 0 511.999 511.999;" xml:space="preserve">
<g>
	<g>
		<path d="M351.079,248.621c-10.533-9.174-24.778-15.512-43.295-19.223c6.243-11.577,9.587-25.072,9.587-39.186
			c0-40.086-27.512-72.7-61.329-72.7s-61.329,32.614-61.329,72.7c0,14.109,3.343,27.599,9.579,39.172
			c-18.539,3.707-32.799,10.041-43.344,19.214c-14.958,13.013-22.542,31.783-22.542,55.787c0,8.621,6.989,15.61,15.61,15.61h203.965
			c8.622,0,15.61-6.989,15.609-15.61C373.591,280.394,366.018,261.634,351.079,248.621z M171.321,288.776
			c4.147-15.937,17.034-26.557,50.575-30.588c8.16-0.98,15.112-6.333,18.145-13.971c3.057-7.701,1.653-16.442-3.665-22.814
			c-6.636-7.953-10.442-19.321-10.442-31.192c0-22.485,13.788-41.481,30.11-41.481s30.11,18.996,30.11,41.481
			c0,11.875-3.809,23.245-10.447,31.197c-5.319,6.37-6.726,15.11-3.672,22.81c3.029,7.639,9.981,12.995,18.139,13.979
			c33.492,4.038,46.363,14.653,50.506,30.579H171.321z"/>
	</g>
</g>
<g>
	<g>
		<path d="M466.036,47.742H45.963C20.619,47.742,0,68.361,0,93.705v250.096c0,25.345,20.619,45.963,45.963,45.963h148.362
			l49.008,68.01c2.934,4.071,7.646,6.483,12.664,6.483c5.018,0,9.73-2.412,12.663-6.483l49.009-68.01h148.368
			c25.344,0,45.963-20.619,45.963-45.963V93.705C511.999,68.36,491.38,47.742,466.036,47.742z M480.78,343.802
			c0,8.13-6.613,14.744-14.744,14.744h-156.36c-5.018,0-9.73,2.412-12.664,6.483l-41.017,56.919l-41.017-56.92
			c-2.934-4.071-7.646-6.483-12.664-6.483H45.963c-8.129,0-14.744-6.613-14.744-14.744V93.705c0-8.129,6.614-14.744,14.744-14.744
			h420.073c8.129,0,14.744,6.613,14.744,14.744V343.802z"/>
	</g>
</g>
<g>
</g>
<g>
</g>
<g>
</g>
<g>
</g>
<g>
</g>
<g>
</g>
<g>
</g>
<g>
</g>
<g>
</g>
<g>
</g>
<g>
</g>
<g>
</g>
<g>
</g>
<g>
</g>
<g>
</g>
</svg>
