<?xml version="1.0" encoding="iso-8859-1"?>
<!-- Generator: Adobe Illustrator 19.0.0, SVG Export Plug-In . SVG Version: 6.00 Build 0)  -->
<svg version="1.1" id="Capa_1" xmlns="http://www.w3.org/2000/svg" xmlns:xlink="http://www.w3.org/1999/xlink" x="0px" y="0px"
	 viewBox="0 0 511.999 511.999" style="enable-background:new 0 0 511.999 511.999;" xml:space="preserve">
<g>
	<g>
		<path d="M466.036,47.742H45.963C20.619,47.742,0,68.361,0,93.705v250.096c0,25.345,20.619,45.963,45.963,45.963h148.362
			l49.008,68.01c2.934,4.071,7.646,6.483,12.664,6.483c5.018,0,9.73-2.412,12.663-6.483l49.009-68.01h148.368
			c25.344,0,45.963-20.619,45.963-45.963V93.705C511.999,68.36,491.38,47.742,466.036,47.742z M480.78,343.802
			c0,8.13-6.613,14.744-14.744,14.744h-156.36c-5.018,0-9.73,2.412-12.664,6.483l-41.017,56.919l-41.017-56.92
			c-2.934-4.071-7.646-6.483-12.664-6.483H45.963c-8.129,0-14.744-6.613-14.744-14.744V93.705c0-8.129,6.614-14.744,14.744-14.744
			h420.073c8.129,0,14.744,6.613,14.744,14.744V343.802z"/>
	</g>
</g>
<g>
	<g>
		<path d="M294.084,128.382c-14.045,0-27.397,4.771-38.085,13.256c-10.687-8.484-24.04-13.256-38.085-13.256
			c-33.799,0-61.296,27.496-61.296,61.294c0,22.907,15.005,50.779,45.873,85.208c21.412,23.883,42.529,41.84,43.417,42.593
			c2.912,2.466,6.501,3.701,10.091,3.701c3.59,0,7.179-1.233,10.089-3.701c0.889-0.753,22.006-18.712,43.417-42.593
			c30.868-34.429,45.873-62.301,45.873-85.208C355.379,155.879,327.882,128.382,294.084,128.382z M255.999,284.75
			c-29.758-27.24-68.162-70.571-68.162-95.072c0-16.584,13.492-30.075,30.076-30.075c10.104,0,19.48,5.036,25.081,13.473
			c2.893,4.356,7.775,6.975,13.004,6.975c5.229,0,10.111-2.618,13.004-6.975c5.602-8.436,14.979-13.473,25.081-13.473
			c16.585,0,30.076,13.491,30.076,30.075C324.161,214.179,285.755,257.512,255.999,284.75z"/>
	</g>
</g>
<g>
</g>
<g>
</g>
<g>
</g>
<g>
</g>
<g>
</g>
<g>
</g>
<g>
</g>
<g>
</g>
<g>
</g>
<g>
</g>
<g>
</g>
<g>
</g>
<g>
</g>
<g>
</g>
<g>
</g>
</svg>
