<?xml version="1.0" encoding="iso-8859-1"?>
<!-- Generator: Adobe Illustrator 19.0.0, SVG Export Plug-In . SVG Version: 6.00 Build 0)  -->
<svg version="1.1" id="Capa_1" xmlns="http://www.w3.org/2000/svg" xmlns:xlink="http://www.w3.org/1999/xlink" x="0px" y="0px"
	 viewBox="0 0 511.999 511.999" style="enable-background:new 0 0 511.999 511.999;" xml:space="preserve">
<g>
	<g>
		<path d="M392.255,162.879c-4.314-5.584-11.93-7.429-18.323-4.436l-88.296,41.337l-49.889-43.376
			c-3.063-2.664-7.066-3.976-11.115-3.651c-4.044,0.329-7.786,2.276-10.378,5.398l-94.177,113.442
			c-4.509,5.431-4.646,13.263-0.33,18.849c4.315,5.586,11.93,7.429,18.323,4.436l88.296-41.337l49.89,43.377
			c2.753,2.394,6.27,3.7,9.892,3.7c0.407,0,0.815-0.017,1.223-0.05c4.045-0.329,7.786-2.275,10.378-5.396l94.176-113.443
			C396.434,176.297,396.571,168.464,392.255,162.879z M284.401,264.042l-45.65-39.693c-2.799-2.434-6.327-3.7-9.896-3.7
			c-2.167,0-4.348,0.467-6.39,1.422l-36.126,16.913l41.265-49.707l45.65,39.692c4.5,3.914,10.884,4.807,16.285,2.278l36.128-16.914
			L284.401,264.042z"/>
	</g>
</g>
<g>
	<g>
		<path d="M435.486,85.079C387.372,48.481,323.63,28.326,256,28.326S124.627,48.481,76.513,85.079
			C27.173,122.608,0,172.891,0,226.66c0,31.849,9.924,63.49,28.699,91.503c16.368,24.421,39.535,46.234,67.339,63.477v86.956
			c0,6.09,3.663,11.582,9.286,13.921c1.872,0.778,3.838,1.156,5.788,1.156c3.908,0,7.751-1.521,10.632-4.384l62.531-62.163
			c23.221,5.224,47.308,7.869,71.724,7.869c67.63,0,131.372-20.155,179.486-56.752c49.341-37.531,76.513-87.812,76.513-141.583
			C511.999,172.891,484.826,122.609,435.486,85.079z M256,394.842c-24.866,0-49.318-3.01-72.679-8.947
			c-5.14-1.307-10.584,0.182-14.343,3.92l-42.786,42.534v-59.267c0-5.403-2.891-10.392-7.577-13.08
			c-56.219-32.235-88.461-80.838-88.461-133.341c0-92.735,101.314-168.18,225.846-168.18c124.533,0,225.847,75.447,225.847,168.181
			S380.532,394.842,256,394.842z"/>
	</g>
</g>
<g>
</g>
<g>
</g>
<g>
</g>
<g>
</g>
<g>
</g>
<g>
</g>
<g>
</g>
<g>
</g>
<g>
</g>
<g>
</g>
<g>
</g>
<g>
</g>
<g>
</g>
<g>
</g>
<g>
</g>
</svg>
