<?xml version="1.0" encoding="iso-8859-1"?>
<!-- Generator: Adobe Illustrator 19.0.0, SVG Export Plug-In . SVG Version: 6.00 Build 0)  -->
<svg version="1.1" id="Capa_1" xmlns="http://www.w3.org/2000/svg" xmlns:xlink="http://www.w3.org/1999/xlink" x="0px" y="0px"
	 viewBox="0 0 512 512" style="enable-background:new 0 0 512 512;" xml:space="preserve">
<g>
	<g>
		<path d="M458.83,25.081H53.17C23.852,25.081,0,48.933,0,78.25v283.374c0,29.318,23.852,53.17,53.17,53.17h148.739v41.89h-33.596
			c-8.349,0-15.118,6.769-15.118,15.118c0,8.349,6.769,15.118,15.118,15.118h48.714h77.948h48.713
			c8.349,0,15.118-6.769,15.118-15.118c0-8.349-6.769-15.118-15.118-15.118h-33.595v-41.89H458.83
			c29.318,0,53.17-23.852,53.17-53.17V78.25C512,48.933,488.148,25.081,458.83,25.081z M279.857,456.684h-47.712v-41.89h47.712
			V456.684z M481.764,361.624c0,12.646-10.288,22.934-22.934,22.934H294.974h-77.948H53.17c-12.646,0-22.934-10.288-22.934-22.934
			v-11.558h451.528V361.624z M481.764,319.83H30.236V78.25c0-12.646,10.288-22.934,22.934-22.934H458.83
			c12.646,0,22.934,10.288,22.934,22.934V319.83z"/>
	</g>
</g>
<g>
	<g>
		<path d="M300.013,75.79H95.082c-24.083,0-43.675,19.592-43.675,43.675v58.685c0,6.204,3.792,11.78,9.562,14.06
			c1.804,0.713,3.687,1.059,5.553,1.059c4.101,0,8.121-1.671,11.036-4.784l23.741-25.345h198.714
			c24.081-0.001,43.674-19.594,43.674-43.675C343.686,95.382,324.095,75.79,300.013,75.79z M300.013,132.902H94.745v0.001
			c-4.181,0-8.175,1.732-11.033,4.783l-2.069,2.207v-20.429c0-7.411,6.028-13.439,13.439-13.439h204.931
			c7.41,0,13.438,6.028,13.438,13.439C313.451,126.873,307.423,132.902,300.013,132.902z"/>
	</g>
</g>
<g>
	<g>
		<path d="M416.919,181.881H211.987c-24.082,0-43.674,19.592-43.674,43.675c0,24.082,19.592,43.674,43.674,43.674h198.714
			l23.741,25.345c2.916,3.113,6.934,4.784,11.036,4.784c1.867,0,3.749-0.347,5.553-1.059c5.771-2.281,9.562-7.855,9.562-14.06
			v-58.686C460.593,201.473,441.001,181.881,416.919,181.881z M430.357,245.984L430.357,245.984l-2.069-2.207
			c-2.858-3.052-6.852-4.783-11.033-4.783H211.987c-7.41,0-13.438-6.028-13.438-13.439c0-7.41,6.028-13.438,13.438-13.438H416.92
			c7.41,0,13.438,6.028,13.438,13.438V245.984z"/>
	</g>
</g>
<g>
</g>
<g>
</g>
<g>
</g>
<g>
</g>
<g>
</g>
<g>
</g>
<g>
</g>
<g>
</g>
<g>
</g>
<g>
</g>
<g>
</g>
<g>
</g>
<g>
</g>
<g>
</g>
<g>
</g>
</svg>
