<?xml version="1.0" encoding="iso-8859-1"?>
<!-- Generator: Adobe Illustrator 19.0.0, SVG Export Plug-In . SVG Version: 6.00 Build 0)  -->
<svg version="1.1" id="Capa_1" xmlns="http://www.w3.org/2000/svg" xmlns:xlink="http://www.w3.org/1999/xlink" x="0px" y="0px"
	 viewBox="0 0 511.999 511.999" style="enable-background:new 0 0 511.999 511.999;" xml:space="preserve">
<g>
	<g>
		<path d="M436.055,236.128c0.35-3.627,0.526-7.278,0.526-10.94c0-62.192-50.597-112.789-112.789-112.789
			c-24.774,0-48.287,7.883-67.996,22.798c-15.236,11.53-27.393,26.944-35.13,44.312c-5.932-1.001-11.959-1.506-18.03-1.506
			c-23.649,0-46.094,7.524-64.907,21.761c-13.758,10.41-24.887,24.14-32.302,39.626c-7.622-2.289-15.581-3.471-23.586-3.471
			C36.714,235.918,0,272.632,0,317.76s36.714,81.84,81.84,81.84h348.318c45.127,0,81.84-36.714,81.84-81.84
			C512,274.616,478.439,239.161,436.055,236.128z M58.569,363.947c-16.869-8.534-28.467-26.026-28.467-46.187
			s11.598-37.653,28.467-46.188V363.947z M119.321,369.498H88.67V266.482c6.298,0.838,12.415,2.818,17.978,5.864
			c3.9,2.136,8.538,2.424,12.673,0.816V369.498z M178.985,369.498h-29.564V229.364c8.398-7.9,18.509-13.914,29.564-17.498V369.498z
			 M430.16,369.498H209.087V208.377c5.643,0.464,11.197,1.528,16.577,3.199c3.842,1.192,7.998,0.8,11.545-1.094
			c3.548-1.891,6.191-5.124,7.341-8.976c10.365-34.741,42.951-59.005,79.242-59.005c45.594,0,82.687,37.093,82.687,82.687
			c0,7.753-1.071,15.425-3.184,22.806c-1.436,5.016-0.171,10.418,3.342,14.276c3.513,3.858,8.775,5.62,13.902,4.66
			c3.214-0.603,6.451-0.908,9.62-0.908c28.529,0,51.739,23.21,51.739,51.739C481.898,346.289,458.688,369.498,430.16,369.498z"/>
	</g>
</g>
<g>
</g>
<g>
</g>
<g>
</g>
<g>
</g>
<g>
</g>
<g>
</g>
<g>
</g>
<g>
</g>
<g>
</g>
<g>
</g>
<g>
</g>
<g>
</g>
<g>
</g>
<g>
</g>
<g>
</g>
</svg>
