<?xml version="1.0" encoding="iso-8859-1"?>
<!-- Generator: Adobe Illustrator 19.0.0, SVG Export Plug-In . SVG Version: 6.00 Build 0)  -->
<svg version="1.1" id="Capa_1" xmlns="http://www.w3.org/2000/svg" xmlns:xlink="http://www.w3.org/1999/xlink" x="0px" y="0px"
	 viewBox="0 0 512 512" style="enable-background:new 0 0 512 512;" xml:space="preserve">
<g>
	<g>
		<path d="M414.773,44.763H97.227C43.616,44.763,0,88.38,0,141.992v228.016c0,53.612,43.616,97.229,97.227,97.229h317.545
			c53.612,0,97.227-43.617,97.227-97.229V141.992C512,88.38,468.384,44.763,414.773,44.763z M480.781,370.008
			c0,36.398-29.612,66.01-66.009,66.01H97.227c-36.397,0-66.009-29.612-66.009-66.01V141.992c0-36.398,29.612-66.01,66.009-66.01
			h317.545c36.397,0,66.009,29.612,66.009,66.01V370.008z"/>
	</g>
</g>
<g>
	<g>
		<path d="M222.9,240.39h-38.386c-8.621,0-15.609,6.989-15.609,15.609c0,8.62,6.989,15.609,15.609,15.609h21.388
			c-5.514,30.445-26.795,53.198-52.13,53.198c-29.51,0-53.519-30.867-53.519-68.807c0-37.94,24.008-68.807,53.519-68.807
			c14.638,0,28.346,7.563,38.596,21.296c5.156,6.909,14.937,8.329,21.846,3.173c6.909-5.155,8.329-14.937,3.173-21.845
			c-16.052-21.508-39.239-33.842-63.614-33.842c-23.232,0-44.88,10.812-60.958,30.445c-15.335,18.725-23.78,43.437-23.78,69.58
			c0,26.144,8.446,50.855,23.78,69.58c16.078,19.633,37.726,30.445,60.958,30.445c23.232,0,44.88-10.812,60.958-30.445
			c15.335-18.725,23.78-43.437,23.78-69.58C238.51,247.379,231.521,240.39,222.9,240.39z"/>
	</g>
</g>
<g>
	<g>
		<path d="M286.493,155.974c-8.621,0-15.609,6.989-15.609,15.609v168.833c0,8.62,6.989,15.609,15.609,15.609
			c8.62,0,15.609-6.989,15.609-15.609V171.583C302.102,162.963,295.113,155.974,286.493,155.974z"/>
	</g>
</g>
<g>
	<g>
		<path d="M427.356,220.45h-61.661v-33.257h61.661v0c8.62,0,15.609-6.989,15.609-15.609c0-8.621-6.989-15.609-15.609-15.609h-77.27
			c-8.62,0-15.609,6.989-15.609,15.609v168.833c0,8.62,6.989,15.609,15.609,15.609c8.621,0,15.609-6.989,15.609-15.609v-88.747
			h61.661c8.62,0,15.609-6.989,15.609-15.609C442.965,227.439,435.976,220.45,427.356,220.45z"/>
	</g>
</g>
<g>
</g>
<g>
</g>
<g>
</g>
<g>
</g>
<g>
</g>
<g>
</g>
<g>
</g>
<g>
</g>
<g>
</g>
<g>
</g>
<g>
</g>
<g>
</g>
<g>
</g>
<g>
</g>
<g>
</g>
</svg>
