<?xml version="1.0" encoding="iso-8859-1"?>
<!-- Generator: Adobe Illustrator 19.0.0, SVG Export Plug-In . SVG Version: 6.00 Build 0)  -->
<svg version="1.1" id="Capa_1" xmlns="http://www.w3.org/2000/svg" xmlns:xlink="http://www.w3.org/1999/xlink" x="0px" y="0px"
	 viewBox="0 0 512 512" style="enable-background:new 0 0 512 512;" xml:space="preserve">
<g>
	<g>
		<path d="M398.601,271.052h-72.988l74.503-167.12c0.876-1.963,1.328-4.091,1.328-6.241V15.329C401.444,6.863,394.581,0,386.115,0
			h-82.362c-6.051,0-11.537,3.559-14,9.088l-41.105,92.199h-135.25c-8.466,0-15.329,6.863-15.329,15.329v96.516
			c0,8.466,6.863,15.329,15.329,15.329h78.555l-80.07,179.607c-0.876,1.963-1.328,4.091-1.328,6.241v82.362
			c0,8.466,6.863,15.329,15.329,15.329h82.362c6.052,0,11.537-3.56,14.002-9.088l46.67-104.685h129.684
			c8.466,0,15.329-6.863,15.329-15.329v-96.516C413.93,277.916,407.067,271.052,398.601,271.052z M383.272,367.569H258.967
			c-6.052,0-11.537,3.56-14.001,9.088l-46.67,104.685h-57.082v-63.77l88.358-198.198c2.114-4.742,1.685-10.232-1.143-14.587
			c-2.827-4.356-7.666-6.983-12.858-6.983h-86.844v-65.858h129.871c6.052,0,11.537-3.56,14.001-9.088l41.105-92.199h57.082v63.769
			L287.995,280.14c-2.114,4.741-1.684,10.232,1.143,14.587c2.828,4.354,7.666,6.983,12.858,6.983h81.276V367.569z"/>
	</g>
</g>
<g>
</g>
<g>
</g>
<g>
</g>
<g>
</g>
<g>
</g>
<g>
</g>
<g>
</g>
<g>
</g>
<g>
</g>
<g>
</g>
<g>
</g>
<g>
</g>
<g>
</g>
<g>
</g>
<g>
</g>
</svg>
