<?xml version="1.0" encoding="iso-8859-1"?>
<!-- Generator: Adobe Illustrator 19.0.0, SVG Export Plug-In . SVG Version: 6.00 Build 0)  -->
<svg version="1.1" id="Capa_1" xmlns="http://www.w3.org/2000/svg" xmlns:xlink="http://www.w3.org/1999/xlink" x="0px" y="0px"
	 viewBox="0 0 511.999 511.999" style="enable-background:new 0 0 511.999 511.999;" xml:space="preserve">
<g>
	<g>
		<path d="M343.7,0H168.298c-36.807,0-66.75,29.945-66.75,66.75v378.498c0,36.807,29.945,66.75,66.75,66.75H343.7
			c36.808,0,66.751-29.945,66.751-66.75V66.75C410.451,29.945,380.507,0,343.7,0z M379.794,445.25
			c0,19.901-16.191,36.093-36.094,36.093H168.298c-19.902,0-36.093-16.191-36.093-36.093v-35.957h247.588V445.25z M379.794,378.635
			H132.206V129.284h247.588V378.635z M379.794,98.626H132.206V66.75c0-19.901,16.19-36.093,36.093-36.093H343.7
			c19.903,0,36.094,16.191,36.094,36.093V98.626z"/>
	</g>
</g>
<g>
	<g>
		<path d="M271.331,429.05h-30.665c-8.466,0-15.329,6.863-15.329,15.329c0,8.466,6.863,15.329,15.329,15.329h30.665
			c8.466,0,15.329-6.863,15.329-15.329C286.66,435.913,279.797,429.05,271.331,429.05z"/>
	</g>
</g>
<g>
	<g>
		<path d="M322.97,177.208H189.035c-13.788,0-25.007,11.218-25.007,25.007v79.739c0,13.788,11.219,25.007,25.007,25.007h32.291
			l22.733,28.251c2.91,3.617,7.302,5.72,11.943,5.72s9.033-2.103,11.943-5.72l22.733-28.251h32.293
			c13.788,0,25.007-11.219,25.007-25.007v-79.739C347.976,188.425,336.758,177.208,322.97,177.208z M283.336,276.302
			c-4.642,0-9.033,2.103-11.943,5.72L256,301.15l-15.392-19.128c-2.91-3.617-7.302-5.72-11.943-5.72h-33.98v-68.437h122.632v68.437
			H283.336z"/>
	</g>
</g>
<g>
</g>
<g>
</g>
<g>
</g>
<g>
</g>
<g>
</g>
<g>
</g>
<g>
</g>
<g>
</g>
<g>
</g>
<g>
</g>
<g>
</g>
<g>
</g>
<g>
</g>
<g>
</g>
<g>
</g>
</svg>
