<?xml version="1.0" encoding="iso-8859-1"?>
<!-- Generator: Adobe Illustrator 19.0.0, SVG Export Plug-In . SVG Version: 6.00 Build 0)  -->
<svg version="1.1" id="Capa_1" xmlns="http://www.w3.org/2000/svg" xmlns:xlink="http://www.w3.org/1999/xlink" x="0px" y="0px"
	 viewBox="0 0 512.001 512.001" style="enable-background:new 0 0 512.001 512.001;" xml:space="preserve">
<g>
	<g>
		<path d="M270.972,119.231H162.617c-27.831,0-50.472,22.641-50.472,50.473c0,27.831,22.641,50.472,50.472,50.472h108.355
			c27.831,0,50.473-22.641,50.472-50.472C321.444,141.872,298.803,119.231,270.972,119.231z M270.972,189.911H162.617
			c-11.143,0-20.208-9.065-20.208-20.208s9.065-20.209,20.208-20.209h108.355c11.143,0,20.208,9.066,20.208,20.209
			S282.115,189.911,270.972,189.911z"/>
	</g>
</g>
<g>
	<g>
		<path d="M353.037,291.828H162.617c-27.831,0-50.472,22.641-50.472,50.472s22.641,50.472,50.472,50.472h190.421
			c27.831,0,50.472-22.641,50.472-50.472S380.868,291.828,353.037,291.828z M353.037,362.507H162.617
			c-11.143,0-20.208-9.065-20.208-20.208c0-11.143,9.065-20.208,20.208-20.208h190.421c11.143,0,20.208,9.065,20.208,20.208
			C373.246,353.442,364.18,362.507,353.037,362.507z"/>
	</g>
</g>
<g>
	<g>
		<path d="M459.402,189.913H433.29l0.107-20.856c0.001-0.273-0.005-0.546-0.018-0.818c-2.178-44.471-21.189-85.975-53.533-116.87
			C347.39,20.368,304.852,3.295,260.066,3.295h-86.544C77.842,3.295,0,81.136,0,176.815v158.369
			c0,95.68,77.843,173.522,173.523,173.522h164.956c49.27,0,90.957-10.721,120.555-31.006
			c34.652-23.752,52.968-60.561,52.968-106.447v-128.74C512.001,213.51,488.404,189.913,459.402,189.913z M481.736,371.251
			c0,93.265-89.755,107.191-143.258,107.191H173.523c-78.993,0-143.259-64.265-143.259-143.259V176.815
			c0-78.992,64.265-143.256,143.258-143.256v-0.001h86.544c76.365,0,139.132,59.597,143.065,135.762l-0.184,35.645
			c-0.021,4.026,1.565,7.896,4.404,10.75c2.841,2.855,6.701,4.46,10.727,4.46h41.321c12.315,0,22.336,10.02,22.336,22.336V371.251z"
			/>
	</g>
</g>
<g>
</g>
<g>
</g>
<g>
</g>
<g>
</g>
<g>
</g>
<g>
</g>
<g>
</g>
<g>
</g>
<g>
</g>
<g>
</g>
<g>
</g>
<g>
</g>
<g>
</g>
<g>
</g>
<g>
</g>
</svg>
