<?xml version="1.0" encoding="iso-8859-1"?>
<!-- Generator: Adobe Illustrator 19.0.0, SVG Export Plug-In . SVG Version: 6.00 Build 0)  -->
<svg version="1.1" id="Capa_1" xmlns="http://www.w3.org/2000/svg" xmlns:xlink="http://www.w3.org/1999/xlink" x="0px" y="0px"
	 viewBox="0 0 512.001 512.001" style="enable-background:new 0 0 512.001 512.001;" xml:space="preserve">
<g>
	<g>
		<path d="M414.921,0.001H97.08C43.55,0.001,0,43.551,0,97.081v317.839C0,468.451,43.55,512,97.08,512H414.92
			c53.53,0,97.08-43.549,97.081-97.079V97.08C512.001,43.55,468.451,0.001,414.921,0.001z M481.343,414.922
			c0,36.625-29.797,66.421-66.422,66.421H97.08c-36.625,0-66.422-29.796-66.422-66.421V97.081c0-36.625,29.797-66.422,66.422-66.422
			H414.92c36.625,0,66.422,29.797,66.423,66.422V414.922z"/>
	</g>
</g>
<g>
	<g>
		<path d="M432.763,340.939c-26.332-16.223-48.219-39.774-60.585-64.71l31.792-16.24c9.099-4.648,15.844-12.561,18.992-22.281
			c3.148-9.721,2.322-20.085-2.326-29.185c-9.595-18.783-32.682-26.257-51.465-16.666l-8.421,4.301v-25.182
			c0-57.76-46.991-104.75-104.75-104.75s-104.75,46.99-104.75,104.75v25.185l-8.427-4.304c-18.782-9.593-41.87-2.119-51.465,16.666
			c-4.648,9.1-5.474,19.464-2.326,29.185c3.148,9.721,9.892,17.634,18.99,22.28l31.798,16.242
			c-12.365,24.936-34.252,48.486-60.583,64.708c-4.385,2.702-7.121,7.424-7.281,12.573c-0.16,5.148,2.275,10.033,6.483,13.003
			c2.17,1.53,17.382,11.922,37.085,16.779c-3.471,12.999-4.713,28.275,3.803,38.099c3.947,4.553,10.195,6.373,15.967,4.65
			c8.813-2.629,35.401-8.833,52.381-6.005c8.085,1.348,16.074,5.909,24.533,10.738c12.255,6.996,26.144,14.926,43.734,14.994
			c0.019,0,0.039,0,0.059,0c0.02,0,0.04,0,0.06,0.001c17.59-0.068,31.479-7.998,43.734-14.994
			c8.458-4.829,16.447-9.391,24.532-10.738c16.885-2.812,43.545,3.383,52.381,6.005c5.774,1.721,12.021-0.096,15.967-4.65
			c8.515-9.824,7.273-25.099,3.803-38.099c19.704-4.858,34.916-15.249,37.085-16.779c4.208-2.971,6.645-7.856,6.483-13.003
			C439.883,348.365,437.148,343.641,432.763,340.939z M375.938,355.114c-5.284-0.102-10.279,2.457-13.196,6.873
			c-2.918,4.415-3.352,10.022-1.15,14.833c2.196,4.796,4.142,10.461,5.419,15.383c-13.52-2.659-32.049-5.018-47.728-2.407
			c-13.488,2.248-24.752,8.679-34.692,14.354c-10.246,5.85-19.097,10.902-28.593,10.96c-9.495-0.058-18.347-5.111-28.593-10.96
			c-9.938-5.675-21.204-12.106-34.692-14.354c-4.812-0.802-9.892-1.135-15.015-1.135c-11.569,0-23.35,1.702-32.724,3.545
			c1.27-4.88,3.21-10.508,5.43-15.386c2.202-4.811,1.768-10.42-1.15-14.833c-2.919-4.416-7.908-6.975-13.196-6.873
			c-6.544,0.186-13.21-1.311-19.169-3.363c26.413-21.395,46.665-48.67,57.057-77.463c2.621-7.264-0.569-15.342-7.446-18.856
			l-44.535-22.747c-2.436-1.245-3.407-3.305-3.769-4.423c-0.362-1.118-0.783-3.356,0.462-5.793
			c1.905-3.727,6.489-5.213,10.217-3.308l30.729,15.695c4.751,2.426,10.424,2.209,14.976-0.576
			c4.552-2.787,7.326-7.738,7.326-13.075v-50.226c0-40.855,33.238-74.092,74.092-74.092s74.092,33.237,74.092,74.092v50.224
			c0,5.337,2.775,10.288,7.326,13.075c4.552,2.786,10.225,3.003,14.976,0.576l30.723-15.693c3.731-1.905,8.312-0.42,10.217,3.308
			c1.246,2.437,0.824,4.675,0.462,5.793s-1.333,3.178-3.77,4.423l-44.529,22.745c-6.877,3.512-10.067,11.592-7.446,18.855
			c10.391,28.792,30.639,56.064,57.05,77.46C389.136,353.796,382.478,355.294,375.938,355.114z"/>
	</g>
</g>
<g>
</g>
<g>
</g>
<g>
</g>
<g>
</g>
<g>
</g>
<g>
</g>
<g>
</g>
<g>
</g>
<g>
</g>
<g>
</g>
<g>
</g>
<g>
</g>
<g>
</g>
<g>
</g>
<g>
</g>
</svg>
