<?xml version="1.0" encoding="iso-8859-1"?>
<!-- Generator: Adobe Illustrator 19.0.0, SVG Export Plug-In . SVG Version: 6.00 Build 0)  -->
<svg version="1.1" id="Capa_1" xmlns="http://www.w3.org/2000/svg" xmlns:xlink="http://www.w3.org/1999/xlink" x="0px" y="0px"
	 viewBox="0 0 512 512" style="enable-background:new 0 0 512 512;" xml:space="preserve">
<g>
	<g>
		<path d="M261.628,0H250.37C142.136,0,54.083,88.055,54.083,196.288V395.61c0,64.178,52.212,116.39,116.39,116.39
			s116.39-52.212,116.39-116.39v-4.648c97.009-12.446,171.055-95.352,171.055-194.674C457.917,88.055,369.862,0,261.628,0z
			 M270.947,362.158c-7.99,0.444-14.242,7.053-14.242,15.055v18.397c0,47.55-38.683,86.233-86.233,86.233
			c-47.55,0-86.233-38.683-86.233-86.233V196.288c0-91.605,74.526-166.131,166.131-166.131h11.26
			c91.605,0,166.131,74.526,166.13,166.13C427.759,284.416,358.88,357.275,270.947,362.158z"/>
	</g>
</g>
<g>
	<g>
		<g>
			<path d="M261.629,142.774h-11.261c-29.507,0-53.513,24.005-53.513,53.513v38.435c0,8.327,6.751,15.079,15.079,15.079h49.696
				c29.508,0,53.514-24.006,53.513-53.514C315.143,166.78,291.137,142.774,261.629,142.774z M261.63,219.644h-34.616v-23.357
				c0-12.878,10.477-23.356,23.356-23.356h11.261c12.878,0,23.357,10.478,23.357,23.356S274.509,219.644,261.63,219.644z"/>
			<path d="M261.63,59.85H250.37c-75.232,0-136.437,61.206-136.437,136.437V395.61c0,31.177,25.363,56.54,56.54,56.54
				s56.54-25.364,56.54-56.539v-62.885h34.617c75.233,0,136.438-61.206,136.438-136.438C398.069,121.055,336.863,59.85,261.63,59.85
				z M261.629,302.567h-49.696c-8.327,0-15.078,6.751-15.078,15.079v77.964c0,14.548-11.836,26.383-26.383,26.383
				c-14.548,0-26.383-11.836-26.383-26.383V196.287c0-58.603,47.677-106.28,106.28-106.28v-0.001h11.261
				c58.603,0,106.281,47.677,106.281,106.28C367.911,254.89,320.233,302.567,261.629,302.567z"/>
		</g>
	</g>
</g>
<g>
</g>
<g>
</g>
<g>
</g>
<g>
</g>
<g>
</g>
<g>
</g>
<g>
</g>
<g>
</g>
<g>
</g>
<g>
</g>
<g>
</g>
<g>
</g>
<g>
</g>
<g>
</g>
<g>
</g>
</svg>
