<?xml version="1.0" encoding="iso-8859-1"?>
<!-- Generator: Adobe Illustrator 19.0.0, SVG Export Plug-In . SVG Version: 6.00 Build 0)  -->
<svg version="1.1" id="Capa_1" xmlns="http://www.w3.org/2000/svg" xmlns:xlink="http://www.w3.org/1999/xlink" x="0px" y="0px"
	 viewBox="0 0 512 512" style="enable-background:new 0 0 512 512;" xml:space="preserve">
<g>
	<g>
		<path d="M437.019,74.981C388.668,26.629,324.38,0,256,0S123.332,26.629,74.981,74.981C26.63,123.333,0,187.62,0,256
			s26.629,132.668,74.981,181.019C123.333,485.37,187.621,512,256,512s132.668-26.629,181.019-74.981
			C485.37,388.667,512,324.379,512,256S485.371,123.332,437.019,74.981z M256,481.764C131.513,481.764,30.236,380.487,30.236,256
			S131.513,30.236,256,30.236S481.764,131.513,481.764,256S380.487,481.764,256,481.764z"/>
	</g>
</g>
<g>
	<g>
		<path d="M375.73,334.193c-5.904-5.903-15.477-5.903-21.38,0c-26.27,26.27-61.198,40.739-98.35,40.739
			c-37.152,0-72.08-14.468-98.35-40.739c-5.903-5.905-15.476-5.903-21.38,0c-5.904,5.903-5.904,15.476,0,21.38
			c31.98,31.981,74.501,49.595,119.73,49.595s87.748-17.613,119.73-49.595C381.634,349.67,381.634,340.097,375.73,334.193z"/>
	</g>
</g>
<g>
	<g>
		<path d="M146.959,170.14c-26.783,0-48.572,21.789-48.572,48.572c0,8.349,6.769,15.118,15.118,15.118s15.118-6.769,15.118-15.118
			c0-10.11,8.225-18.336,18.336-18.336c10.11,0,18.335,8.225,18.335,18.336c0,8.349,6.769,15.118,15.118,15.118
			s15.118-6.769,15.118-15.118C195.53,191.929,173.741,170.14,146.959,170.14z"/>
	</g>
</g>
<g>
	<g>
		<path d="M365.04,170.14c-26.782,0-48.571,21.789-48.571,48.572c0,8.349,6.769,15.118,15.118,15.118s15.118-6.769,15.118-15.118
			c0-10.111,8.225-18.336,18.335-18.336c10.111,0,18.336,8.225,18.336,18.336c0,8.349,6.769,15.118,15.118,15.118
			s15.118-6.769,15.118-15.118C413.612,191.93,391.824,170.14,365.04,170.14z"/>
	</g>
</g>
<g>
</g>
<g>
</g>
<g>
</g>
<g>
</g>
<g>
</g>
<g>
</g>
<g>
</g>
<g>
</g>
<g>
</g>
<g>
</g>
<g>
</g>
<g>
</g>
<g>
</g>
<g>
</g>
<g>
</g>
</svg>
