<?xml version="1.0" encoding="iso-8859-1"?>
<!-- Generator: Adobe Illustrator 19.0.0, SVG Export Plug-In . SVG Version: 6.00 Build 0)  -->
<svg version="1.1" id="Capa_1" xmlns="http://www.w3.org/2000/svg" xmlns:xlink="http://www.w3.org/1999/xlink" x="0px" y="0px"
	 viewBox="0 0 512 512" style="enable-background:new 0 0 512 512;" xml:space="preserve">
<g>
	<g>
		<path d="M365.445,8.571c-42.22,0-81.822,18.035-109.445,49.08c-27.622-31.045-67.224-49.08-109.445-49.08
			C65.744,8.571,0,74.315,0,155.125c0,57.401,41.809,133.138,124.265,225.108c60.19,67.134,119.374,117.468,121.864,119.577
			c2.848,2.412,6.359,3.62,9.87,3.62c3.511,0,7.022-1.206,9.871-3.62c2.49-2.11,61.673-52.443,121.864-119.577
			C470.191,288.263,512,212.526,512,155.125C512,74.315,446.255,8.571,365.445,8.571z M365.222,359.598
			c-44.644,49.825-89.805,91.095-109.224,108.301c-19.374-17.162-64.377-58.283-108.996-108.05
			C70.81,274.866,30.537,204.073,30.537,155.125c0-63.972,52.045-116.017,116.018-116.017c38.971,0,75.13,19.417,96.725,51.942
			c2.829,4.261,7.605,6.823,12.72,6.823c5.115,0,9.891-2.561,12.72-6.823c21.595-32.525,57.754-51.942,96.725-51.942
			c63.973,0,116.018,52.046,116.018,116.017C481.463,204.022,441.268,274.727,365.222,359.598z"/>
	</g>
</g>
<g>
</g>
<g>
</g>
<g>
</g>
<g>
</g>
<g>
</g>
<g>
</g>
<g>
</g>
<g>
</g>
<g>
</g>
<g>
</g>
<g>
</g>
<g>
</g>
<g>
</g>
<g>
</g>
<g>
</g>
</svg>
