<?xml version="1.0" encoding="iso-8859-1"?>
<!-- Generator: Adobe Illustrator 19.0.0, SVG Export Plug-In . SVG Version: 6.00 Build 0)  -->
<svg version="1.1" id="Capa_1" xmlns="http://www.w3.org/2000/svg" xmlns:xlink="http://www.w3.org/1999/xlink" x="0px" y="0px"
	 viewBox="0 0 512 512" style="enable-background:new 0 0 512 512;" xml:space="preserve">
<g>
	<g>
		<path d="M479.389,34.38c-23.609-19.552-49.637-27.19-77.365-22.697c-69.806,11.307-124.434,97.692-126.726,101.364
			c-3.424,5.488-3.036,12.533,0.971,17.611c4.007,5.078,10.77,7.094,16.902,5.04c0.091-0.03,9.525-2.984,20.509-1.995
			c13.933,1.251,23.716,8.075,29.911,20.863c2.421,4.997,2.345,24.516-8.159,55.621c-9.752,28.877-24.303,55.832-38.923,72.105
			c-4.779,5.318-16.839,17.349-25.625,14.201c-0.869-0.312-8.784-3.966-18.958-35.895c-7.457-23.404-13.667-53.464-20.241-85.291
			c-7.168-34.692-14.579-70.567-24.117-99.26c-12.232-36.795-26.61-56.827-45.245-63.039c-25.329-8.441-59.071,3.675-103.159,37.045
			C29.025,72.866,5.303,97.309,4.308,98.338c-5.045,5.22-5.738,13.262-1.659,19.268l32.641,48.046
			c2.493,3.671,6.455,6.079,10.862,6.607c4.405,0.521,8.824-0.884,12.112-3.863c7.958-7.213,20.564-14.31,27.024-14.385
			c5.294,10.896,14.418,47.448,21.864,77.277c12.297,49.255,27.598,110.556,47.321,161.914
			c25.101,65.365,51.323,99.388,82.522,107.075c3.609,0.889,7.311,1.308,11.091,1.308c34.801-0.003,75.889-35.563,105.545-67.192
			c41.398-44.155,82.21-103.365,111.972-162.448c24.718-49.07,40.231-95.145,44.862-133.245
			C516.222,91.325,505.768,56.227,479.389,34.38z M438.224,258.152c-28.498,56.572-67.483,113.168-106.959,155.272
			c-44.132,47.071-74.411,60.183-86.937,57.086c-13.769-3.393-35.571-21.465-61.236-88.298
			c-19.052-49.61-34.102-109.903-46.196-158.349c-18.04-72.267-23.313-91.416-36.761-97.435c-4.795-2.146-9.726-3.042-14.62-3.042
			c-12.527,0-24.807,5.874-33.918,11.714L35.19,110.948c9.284-8.883,24.984-23.233,42.751-36.655
			c47.33-35.757,68-34.433,74.69-32.199c3.836,1.278,14.034,8.089,25.848,43.624c8.971,26.987,16.197,61.964,23.185,95.791
			c16.977,82.182,28.903,133.096,58.877,143.842c13.285,4.764,34.264,4.711,58.775-22.571
			c17.263-19.214,34.146-50.162,45.163-82.785c6.885-20.385,16.91-57.728,6.705-78.794c-10.413-21.497-27.999-34.438-51.01-37.608
			c20.906-25.247,53.516-56.262,86.755-61.647c18.874-3.057,36.179,2.19,52.908,16.045
			C494.836,86.977,486.757,161.804,438.224,258.152z"/>
	</g>
</g>
<g>
</g>
<g>
</g>
<g>
</g>
<g>
</g>
<g>
</g>
<g>
</g>
<g>
</g>
<g>
</g>
<g>
</g>
<g>
</g>
<g>
</g>
<g>
</g>
<g>
</g>
<g>
</g>
<g>
</g>
</svg>
