<?xml version="1.0" encoding="iso-8859-1"?>
<!-- Generator: Adobe Illustrator 19.0.0, SVG Export Plug-In . SVG Version: 6.00 Build 0)  -->
<svg version="1.1" id="Capa_1" xmlns="http://www.w3.org/2000/svg" xmlns:xlink="http://www.w3.org/1999/xlink" x="0px" y="0px"
	 viewBox="0 0 512 512" style="enable-background:new 0 0 512 512;" xml:space="preserve">
<g>
	<g>
		<path d="M458.132,491.221L270.196,9.698C267.913,3.85,262.278,0,256,0c-6.278,0-11.913,3.85-14.196,9.698L53.868,491.221
			c-1.83,4.689-1.226,9.98,1.613,14.137c2.84,4.156,7.549,6.642,12.583,6.642h375.873c5.034,0,9.742-2.486,12.583-6.642
			C459.359,501.201,459.962,495.911,458.132,491.221z M267.513,481.524H244.48V330.497h23.033V481.524z M297.989,481.524v-25.823
			l59.33-31.707c7.422-3.967,10.223-13.199,6.257-20.622c-3.968-7.423-13.198-10.223-20.622-6.257l-44.966,24.031v-27.333
			l36.297-19.399c7.422-3.967,10.223-13.199,6.257-20.622c-3.966-7.422-13.2-10.223-20.621-6.257l-21.933,11.722V315.26
			c0-8.415-6.823-15.238-15.238-15.238h-53.508c-8.416,0-15.238,6.823-15.238,15.238v61.266l-21.933-11.722
			c-7.423-3.967-16.655-1.165-20.621,6.257c-3.967,7.423-1.165,16.655,6.257,20.622l36.297,19.399v70.442H90.369L256,57.149
			l165.631,424.375H297.989z"/>
	</g>
</g>
<g>
</g>
<g>
</g>
<g>
</g>
<g>
</g>
<g>
</g>
<g>
</g>
<g>
</g>
<g>
</g>
<g>
</g>
<g>
</g>
<g>
</g>
<g>
</g>
<g>
</g>
<g>
</g>
<g>
</g>
</svg>
