<?xml version="1.0" encoding="iso-8859-1"?>
<!-- Generator: Adobe Illustrator 19.0.0, SVG Export Plug-In . SVG Version: 6.00 Build 0)  -->
<svg version="1.1" id="Capa_1" xmlns="http://www.w3.org/2000/svg" xmlns:xlink="http://www.w3.org/1999/xlink" x="0px" y="0px"
	 viewBox="0 0 512 512" style="enable-background:new 0 0 512 512;" xml:space="preserve">
<g>
	<g>
		<path d="M437.019,74.98C388.668,26.629,324.38,0,256,0c-68.38,0-132.668,26.629-181.02,74.98S0.001,187.62,0.001,256
			c0,67.907,26.272,131.769,73.989,180.004c0.081,0.083,0.16,0.167,0.242,0.248c0.252,0.254,0.496,0.514,0.75,0.768
			C123.333,485.371,187.62,512,256,512s132.668-26.629,181.02-74.98c0.239-0.239,0.468-0.483,0.706-0.723
			c0.126-0.122,0.245-0.249,0.366-0.375c47.666-48.226,73.908-112.054,73.908-179.922C511.999,187.62,485.371,123.332,437.019,74.98
			z M411.649,418.71c-40.478,38.737-95.332,62.569-155.649,62.569c-60.314,0.002-115.165-23.827-155.642-62.56v-19.124
			c0-54.354,28.154-79.908,97.173-88.202c9.742-1.172,18.043-7.562,21.662-16.681c3.661-9.222,1.976-19.696-4.398-27.335
			c-12.723-15.246-20.021-36.835-20.021-59.231c0-44.317,27.5-80.372,61.303-80.372c33.802,0,61.303,36.055,61.303,80.372
			c0,22.402-7.301,43.996-20.03,59.242c-6.376,7.636-8.064,18.107-4.407,27.329c3.617,9.12,11.915,15.513,21.657,16.688
			c68.932,8.31,97.048,33.859,97.048,88.188V418.71z M408.332,314.242c-19.009-16.558-46.296-27.199-83.267-32.445
			c14.898-20.296,23.035-46.18,23.035-73.651c0-29.049-9.171-56.499-25.825-77.294c-17.453-21.796-40.963-33.798-66.198-33.798
			s-48.745,12.003-66.198,33.798c-16.653,20.795-25.825,48.245-25.825,77.294c0,27.462,8.131,53.339,23.021,73.633
			c-37.012,5.237-64.324,15.872-83.355,32.428c-19.526,16.988-30.504,39.763-33.336,69.302C45.383,347.227,30.72,303.297,30.72,256
			c0-124.22,101.06-225.28,225.28-225.28S481.281,131.78,481.281,256c0,47.293-14.66,91.22-39.659,127.501
			C438.79,353.985,427.828,331.224,408.332,314.242z"/>
	</g>
</g>
<g>
</g>
<g>
</g>
<g>
</g>
<g>
</g>
<g>
</g>
<g>
</g>
<g>
</g>
<g>
</g>
<g>
</g>
<g>
</g>
<g>
</g>
<g>
</g>
<g>
</g>
<g>
</g>
<g>
</g>
</svg>
