<?xml version="1.0" encoding="iso-8859-1"?>
<!-- Generator: Adobe Illustrator 19.0.0, SVG Export Plug-In . SVG Version: 6.00 Build 0)  -->
<svg version="1.1" id="Capa_1" xmlns="http://www.w3.org/2000/svg" xmlns:xlink="http://www.w3.org/1999/xlink" x="0px" y="0px"
	 viewBox="0 0 512 512" style="enable-background:new 0 0 512 512;" xml:space="preserve">
<g>
	<g>
		<path d="M512,256c0-5.249-2.777-10.107-7.299-12.772l-54.391-32.047l54.391-32.047c4.522-2.664,7.299-7.522,7.299-12.772
			c0-5.249-2.777-10.107-7.299-12.772L263.525,11.493c-4.644-2.735-10.405-2.735-15.049,0L7.299,153.592
			C2.777,156.257,0,161.115,0,166.363c0,5.248,2.777,10.107,7.299,12.772l54.391,32.047L7.299,243.228
			C2.777,245.893,0,250.751,0,256c0,5.248,2.777,10.107,7.299,12.772l54.391,32.047L7.299,332.864C2.777,335.53,0,340.388,0,345.636
			c0,5.248,2.777,10.107,7.299,12.772l241.176,142.1c2.322,1.368,4.922,2.052,7.524,2.052s5.203-0.684,7.524-2.052l241.177-142.1
			c4.522-2.664,7.299-7.522,7.299-12.772s-2.777-10.107-7.299-12.772l-54.391-32.047l54.391-32.047
			C509.224,266.107,512,261.249,512,256z M44.024,166.363L256,41.469l211.977,124.895L256,291.258L44.024,166.363z M467.977,345.636
			L256,470.531L44.024,345.636l46.867-27.614l157.586,92.848c2.322,1.368,4.922,2.052,7.524,2.052s5.203-0.684,7.524-2.052
			l157.586-92.848L467.977,345.636z M256,380.894L44.024,256l46.867-27.614l157.585,92.848c2.322,1.368,4.922,2.052,7.524,2.052
			s5.203-0.684,7.524-2.052l157.585-92.848L467.975,256L256,380.894z"/>
	</g>
</g>
<g>
</g>
<g>
</g>
<g>
</g>
<g>
</g>
<g>
</g>
<g>
</g>
<g>
</g>
<g>
</g>
<g>
</g>
<g>
</g>
<g>
</g>
<g>
</g>
<g>
</g>
<g>
</g>
<g>
</g>
</svg>
