<?xml version="1.0" encoding="iso-8859-1"?>
<!-- Generator: Adobe Illustrator 19.0.0, SVG Export Plug-In . SVG Version: 6.00 Build 0)  -->
<svg version="1.1" id="Capa_1" xmlns="http://www.w3.org/2000/svg" xmlns:xlink="http://www.w3.org/1999/xlink" x="0px" y="0px"
	 viewBox="0 0 512 512" style="enable-background:new 0 0 512 512;" xml:space="preserve">
<g>
	<g>
		<path d="M235.326,255.569c8.367-9.711,13.444-22.334,13.444-36.129c0-30.564-24.866-55.431-55.431-55.431h-87.261
			c-8.349,0-15.118,6.769-15.118,15.118v168.482c0,8.349,6.769,15.118,15.118,15.118h95.084c32.558,0,59.046-26.488,59.046-59.046
			C260.208,283.849,250.369,266.282,235.326,255.569z M121.196,194.245h72.143c13.892,0,25.196,11.303,25.196,25.196
			s-11.302,25.196-25.196,25.196h-72.143V194.245z M201.162,332.492h-79.966v-57.619h72.143h7.823
			c15.886,0,28.81,12.924,28.81,28.81C229.972,319.568,217.048,332.492,201.162,332.492z"/>
	</g>
</g>
<g>
	<g>
		<path d="M430.975,291.197c0-20.176-5.961-38.77-16.782-52.359c-12.063-15.144-29.608-23.486-49.404-23.486
			c-19.796,0-37.341,8.341-49.403,23.486c-10.822,13.588-16.782,32.184-16.782,52.359c0,19.369,7.24,38.29,20.385,53.279
			c12.99,14.811,29.684,23.306,45.801,23.306c25.609,0,38.221-8.746,50.269-22.857c5.421-6.351,4.668-15.893-1.68-21.313
			c-6.351-5.423-15.893-4.669-21.314,1.68c-7.435,8.709-11.984,12.255-27.275,12.255c-11.283,0-27.435-12.677-33.508-31.231h84.576
			C424.206,306.314,430.975,299.546,430.975,291.197z M330.569,276.079c3.985-16.746,14.985-30.492,34.22-30.492
			s30.235,13.745,34.219,30.492H330.569z"/>
	</g>
</g>
<g>
	<g>
		<path d="M403.591,164.009h-77.605c-8.349,0-15.118,6.769-15.118,15.118s6.769,15.118,15.118,15.118h77.605
			c8.349,0,15.118-6.769,15.118-15.118S411.94,164.009,403.591,164.009z"/>
	</g>
</g>
<g>
	<g>
		<path d="M437.919,0H74.081C33.233,0,0,33.233,0,74.081v363.838C0,478.767,33.233,512,74.081,512h363.838
			C478.768,512,512,478.767,512,437.919V74.081C512,33.233,478.768,0,437.919,0z M437.919,481.764H74.081
			c-24.176,0-43.845-19.669-43.845-43.845V74.081c0-24.176,19.669-43.845,43.845-43.845h363.838
			c24.177,0,43.845,19.669,43.845,43.845v363.838h0C481.764,462.095,462.096,481.764,437.919,481.764z"/>
	</g>
</g>
<g>
</g>
<g>
</g>
<g>
</g>
<g>
</g>
<g>
</g>
<g>
</g>
<g>
</g>
<g>
</g>
<g>
</g>
<g>
</g>
<g>
</g>
<g>
</g>
<g>
</g>
<g>
</g>
<g>
</g>
</svg>
