<?xml version="1.0" encoding="iso-8859-1"?>
<!-- Generator: Adobe Illustrator 19.0.0, SVG Export Plug-In . SVG Version: 6.00 Build 0)  -->
<svg version="1.1" id="Capa_1" xmlns="http://www.w3.org/2000/svg" xmlns:xlink="http://www.w3.org/1999/xlink" x="0px" y="0px"
	 viewBox="0 0 512 512" style="enable-background:new 0 0 512 512;" xml:space="preserve">
<g>
	<g>
		<path d="M437.016,74.984C388.662,26.629,324.373,0,255.99,0S123.318,26.63,74.964,74.984
			C33.867,116.081,7.777,170.471,1.497,228.138c-5.937,54.514,5.91,110.004,33.398,157.041L8.218,484.741
			c-1.439,5.364,0.095,11.089,4.024,15.016c3.928,3.928,9.653,5.463,15.018,4.025l99.562-26.678
			C165.925,499.958,210.875,512,256.246,512c9.203,0,18.423-0.495,27.616-1.497c57.666-6.28,112.058-32.371,153.154-73.468
			C485.371,388.682,512,324.392,512,256.01S485.37,123.338,437.016,74.984z M415.03,415.05
			c-74.33,74.33-188.498,87.541-277.638,32.121c-2.487-1.545-5.334-2.343-8.209-2.343c-1.346,0-2.699,0.175-4.024,0.53
			l-79.936,21.42l21.418-79.937c1.113-4.152,0.456-8.581-1.814-12.232C9.411,285.47,22.621,171.301,96.952,96.971
			c87.695-87.694,230.384-87.692,318.078,0C502.725,184.666,502.725,327.356,415.03,415.05z"/>
	</g>
</g>
<g>
	<g>
		<g>
			<path d="M260.298,111.057H156.483c-8.586,0-15.547,6.961-15.547,15.547v258.8c0,8.586,6.961,15.547,15.547,15.547h103.815
				c79.924,0,144.947-65.022,144.947-144.947S340.222,111.057,260.298,111.057z M260.298,369.858H172.03V142.151h88.267
				c62.779,0,113.853,51.073,113.853,113.853C374.151,318.783,323.076,369.858,260.298,369.858z"/>
			<path d="M260.298,177.415h-37.456c-8.586,0-15.547,6.961-15.547,15.547v126.085c0,8.586,6.961,15.547,15.547,15.547h37.456
				c43.334,0,78.589-35.256,78.589-78.59C338.887,212.671,303.632,177.415,260.298,177.415z M260.298,303.5h-21.909v-94.99h21.909
				c26.189,0,47.495,21.306,47.495,47.496C307.792,282.193,286.486,303.5,260.298,303.5z"/>
		</g>
	</g>
</g>
<g>
</g>
<g>
</g>
<g>
</g>
<g>
</g>
<g>
</g>
<g>
</g>
<g>
</g>
<g>
</g>
<g>
</g>
<g>
</g>
<g>
</g>
<g>
</g>
<g>
</g>
<g>
</g>
<g>
</g>
</svg>
