<?xml version="1.0" encoding="iso-8859-1"?>
<!-- Generator: Adobe Illustrator 19.0.0, SVG Export Plug-In . SVG Version: 6.00 Build 0)  -->
<svg version="1.1" id="Capa_1" xmlns="http://www.w3.org/2000/svg" xmlns:xlink="http://www.w3.org/1999/xlink" x="0px" y="0px"
	 viewBox="0 0 512 512" style="enable-background:new 0 0 512 512;" xml:space="preserve">
<g>
	<g>
		<path d="M285.765,164.652h-28.092c-31.826,0-57.716,25.891-57.716,57.716c0,31.825,25.891,57.716,57.716,57.716h28.092
			c32.115,0,58.242,26.127,58.242,58.242c0,32.116-26.127,58.243-58.242,58.243h-59.528c-32.115,0-58.243-26.128-58.243-58.243
			V57.716C167.993,25.891,142.102,0,110.278,0S52.562,25.891,52.563,57.716v280.61C52.563,434.09,130.471,512,226.237,512h59.528
			c95.764,0,173.674-77.91,173.673-173.675C459.437,242.562,381.529,164.652,285.765,164.652z M285.765,481.764h-59.528
			c-79.092,0-143.439-64.346-143.439-143.438V57.716c0-15.152,12.327-27.48,27.48-27.48c15.152,0,27.48,12.327,27.48,27.48v280.611
			c0,48.788,39.692,88.479,88.479,88.479h59.528c48.787,0,88.478-39.692,88.478-88.479c0-48.787-39.691-88.478-88.478-88.478
			h-28.092c-15.153,0-27.48-12.327-27.48-27.48c0-15.152,12.327-27.48,27.48-27.48h28.092c79.091,0,143.437,64.345,143.437,143.437
			S364.856,481.764,285.765,481.764z"/>
	</g>
</g>
<g>
</g>
<g>
</g>
<g>
</g>
<g>
</g>
<g>
</g>
<g>
</g>
<g>
</g>
<g>
</g>
<g>
</g>
<g>
</g>
<g>
</g>
<g>
</g>
<g>
</g>
<g>
</g>
<g>
</g>
</svg>
