<?xml version="1.0" encoding="iso-8859-1"?>
<!-- Generator: Adobe Illustrator 19.0.0, SVG Export Plug-In . SVG Version: 6.00 Build 0)  -->
<svg version="1.1" id="Capa_1" xmlns="http://www.w3.org/2000/svg" xmlns:xlink="http://www.w3.org/1999/xlink" x="0px" y="0px"
	 viewBox="0 0 511.999 511.999" style="enable-background:new 0 0 511.999 511.999;" xml:space="preserve">
<g>
	<g>
		<path d="M425.837,105.592c-41.88,0-75.952,34.072-75.952,75.952c0,41.88,34.071,75.952,75.952,75.952
			c41.879,0,75.951-34.072,75.951-75.952C501.788,139.664,467.718,105.592,425.837,105.592z M425.837,226.959
			c-25.041,0-45.415-20.373-45.415-45.415c0-25.042,20.373-45.415,45.415-45.415c25.041,0,45.414,20.373,45.414,45.415
			C471.252,206.586,450.879,226.959,425.837,226.959z"/>
	</g>
</g>
<g>
	<g>
		<path d="M428.498,269.06h-5.325c-46.042,0-83.501,37.458-83.501,83.501v38.578c0,8.432,6.836,15.268,15.268,15.268h141.79
			c8.432,0,15.268-6.836,15.267-15.268v-38.578C511.999,306.518,474.541,269.06,428.498,269.06z M481.463,375.871H370.211v-23.31
			c0-29.204,23.76-52.964,52.964-52.964h5.325c29.204,0,52.964,23.76,52.964,52.964V375.871z"/>
	</g>
</g>
<g>
	<g>
		<path d="M241.742,130.974c-38.26,0-69.387,31.127-69.387,69.387s31.127,69.387,69.387,69.387s69.387-31.127,69.387-69.387
			S280.002,130.974,241.742,130.974z M241.742,239.21c-21.422,0-38.85-17.428-38.85-38.85s17.428-38.85,38.85-38.85
			s38.85,17.428,38.85,38.85S263.164,239.21,241.742,239.21z"/>
	</g>
</g>
<g>
	<g>
		<path d="M244.117,279.93h-4.748c-41.973,0-76.119,34.146-76.119,76.118v35.091c0,8.432,6.836,15.268,15.268,15.268h126.449
			c8.433,0,15.268-6.836,15.269-15.268v-35.091C320.236,314.076,286.089,279.93,244.117,279.93z M289.699,375.871h-95.913v-19.822
			c0-25.134,20.448-45.581,45.582-45.581h4.748c25.134,0,45.582,20.447,45.582,45.581V375.871z"/>
	</g>
</g>
<g>
	<g>
		<path d="M71.675,153.184c-35.042,0-63.55,28.508-63.55,63.55c0,35.042,28.508,63.551,63.55,63.551s63.551-28.509,63.551-63.551
			C135.226,181.692,106.717,153.184,71.675,153.184z M71.675,249.749c-18.204,0-33.013-14.81-33.013-33.014
			s14.809-33.013,33.013-33.013s33.014,14.809,33.014,33.013S89.879,249.749,71.675,249.749z"/>
	</g>
</g>
<g>
	<g>
		<path d="M73.794,289.591h-4.237C31.202,289.591,0,320.793,0,359.148v31.991c0,8.432,6.836,15.268,15.268,15.268h112.814
			c8.432,0,15.268-6.836,15.268-15.268v-31.991C143.351,320.793,112.148,289.591,73.794,289.591z M112.814,375.871H30.537v-16.723
			c0-21.515,17.505-39.02,39.02-39.02h4.237c21.515,0,39.02,17.505,39.02,39.02V375.871z"/>
	</g>
</g>
<g>
</g>
<g>
</g>
<g>
</g>
<g>
</g>
<g>
</g>
<g>
</g>
<g>
</g>
<g>
</g>
<g>
</g>
<g>
</g>
<g>
</g>
<g>
</g>
<g>
</g>
<g>
</g>
<g>
</g>
</svg>
