<?xml version="1.0" encoding="iso-8859-1"?>
<!-- Generator: Adobe Illustrator 19.0.0, SVG Export Plug-In . SVG Version: 6.00 Build 0)  -->
<svg version="1.1" id="Capa_1" xmlns="http://www.w3.org/2000/svg" xmlns:xlink="http://www.w3.org/1999/xlink" x="0px" y="0px"
	 viewBox="0 0 512 512" style="enable-background:new 0 0 512 512;" xml:space="preserve">
<g>
	<g>
		<path d="M484.152,233.842c-0.338-8.527-7.497-15.172-16.043-14.852c-19.709,0.74-82.971-1.564-114.066-21.159
			c-24.681-15.553-40.013-39.555-40.013-62.639c0-11.97,9.737-21.707,21.707-21.707c11.97,0,21.707,9.737,21.707,21.707
			c0,10.448-0.923,24.7-0.933,24.842c-0.351,5.368,2.111,10.534,6.502,13.641c1.657,1.172,41.17,28.607,93.088,18.984
			c6.875-1.275,12.041-7.002,12.603-13.971c0.092-1.126,2.225-27.744,2.225-43.496C470.929,60.647,410.281,0,335.737,0
			c-74.546,0-135.192,60.647-135.192,135.191c0,31.46,9.06,63.045,26.203,91.339c16.172,26.692,39.268,49.969,66.792,67.312
			c6.468,4.076,13.499,7.873,21.015,11.355c-10.457,20.256-22.438,39.208-35.107,55.473c-14.687,18.854-26.136,29.104-32.926,34.278
			c-10.397-7.38-31.583-26.195-53.758-68.048c-24.96-47.107-54.71-131.136-54.71-263.926c0-8.547-6.929-15.475-15.475-15.475H40.043
			c-8.547,0-15.475,6.929-15.475,15.475c0,163.168,40.077,268.218,73.695,327.61c20.362,35.974,44.51,66.163,69.834,87.306
			c26.728,22.314,54.27,34.11,79.651,34.11c44.504,0,86.406-39.287,113.723-72.244c25.571-30.854,48.39-68.126,66.385-108.344
			c13.386,0.961,24.705,1.191,32.472,1.191c6.044-0.001,10.273-0.135,12.254-0.216c8.534-0.346,15.175-7.542,14.837-16.076
			L484.152,233.842z M419.574,299.658c-6.743-0.657-13.119,3.153-15.749,9.391c-17.457,41.407-40.344,79.775-66.187,110.956
			c-32.625,39.365-64.549,61.044-89.891,61.044c-38.097,0-86.2-41.493-122.55-105.711C94.472,321.057,58.042,226.015,55.643,78.449
			h51.591c2.245,130.307,32.578,214.621,58.179,262.941c34.652,65.403,68.735,83.074,75.216,85.953
			c4.324,1.921,9.285,1.758,13.474-0.441c5.152-2.704,23.968-14.101,49.761-47.213c17.055-21.894,32.911-48.14,45.852-75.895
			c1.824-3.911,1.931-8.405,0.298-12.399c-1.633-3.994-4.86-7.125-8.901-8.636c-11.606-4.341-22.06-9.422-31.073-15.102
			c-23.479-14.795-43.128-34.563-56.822-57.165c-14.211-23.457-21.723-49.495-21.723-75.301
			c0-57.479,46.762-104.242,104.242-104.242s104.242,46.762,104.24,104.242c0,8.009-0.642,19.599-1.219,28.416
			c-22.556,1.178-41.2-6.279-50.836-11.18c0.24-5.161,0.471-11.596,0.471-17.235c0-29.036-23.622-52.657-52.657-52.657
			s-52.657,23.622-52.657,52.657c0,33.62,20.869,67.655,54.463,88.824c33.85,21.331,89.432,25.289,116.271,25.896l2.049,51.714
			C446.748,301.521,434.076,301.06,419.574,299.658z"/>
	</g>
</g>
<g>
</g>
<g>
</g>
<g>
</g>
<g>
</g>
<g>
</g>
<g>
</g>
<g>
</g>
<g>
</g>
<g>
</g>
<g>
</g>
<g>
</g>
<g>
</g>
<g>
</g>
<g>
</g>
<g>
</g>
</svg>
