<?xml version="1.0" encoding="iso-8859-1"?>
<!-- Generator: Adobe Illustrator 19.0.0, SVG Export Plug-In . SVG Version: 6.00 Build 0)  -->
<svg version="1.1" id="Capa_1" xmlns="http://www.w3.org/2000/svg" xmlns:xlink="http://www.w3.org/1999/xlink" x="0px" y="0px"
	 viewBox="0 0 512 512" style="enable-background:new 0 0 512 512;" xml:space="preserve">
<g>
	<g>
		<path d="M148.164,167.305c-48.906,0-88.695,39.788-88.695,88.695s39.788,88.695,88.695,88.695
			c48.907,0,88.695-39.788,88.695-88.695C236.859,207.094,197.07,167.305,148.164,167.305z M148.164,314.459
			c-32.234,0-58.459-26.225-58.459-58.459s26.225-58.459,58.459-58.459c32.234,0,58.459,26.225,58.459,58.459
			S180.398,314.459,148.164,314.459z"/>
	</g>
</g>
<g>
	<g>
		<path d="M363.843,167.305c-48.906,0-88.695,39.788-88.695,88.695s39.788,88.695,88.695,88.695s88.695-39.788,88.695-88.695
			S412.75,167.305,363.843,167.305z M363.843,314.459c-32.234,0-58.459-26.225-58.459-58.459s26.225-58.459,58.459-58.459
			s58.459,26.225,58.459,58.459S396.078,314.459,363.843,314.459z"/>
	</g>
</g>
<g>
	<g>
		<path d="M437.919,0H74.081C33.233,0,0,33.233,0,74.081v363.838C0,478.768,33.233,512,74.081,512h363.838
			C478.768,512,512,478.768,512,437.919V74.081C512,33.233,478.768,0,437.919,0z M481.764,437.919
			c0,24.177-19.668,43.845-43.845,43.845H74.081c-24.176,0-43.845-19.668-43.845-43.845V74.081
			c0-24.176,19.669-43.845,43.845-43.845h363.838c24.176,0,43.845,19.668,43.845,43.845V437.919z"/>
	</g>
</g>
<g>
</g>
<g>
</g>
<g>
</g>
<g>
</g>
<g>
</g>
<g>
</g>
<g>
</g>
<g>
</g>
<g>
</g>
<g>
</g>
<g>
</g>
<g>
</g>
<g>
</g>
<g>
</g>
<g>
</g>
</svg>
