<?xml version="1.0" encoding="iso-8859-1"?>
<!-- Generator: Adobe Illustrator 19.0.0, SVG Export Plug-In . SVG Version: 6.00 Build 0)  -->
<svg version="1.1" id="Capa_1" xmlns="http://www.w3.org/2000/svg" xmlns:xlink="http://www.w3.org/1999/xlink" x="0px" y="0px"
	 viewBox="0 0 512 512" style="enable-background:new 0 0 512 512;" xml:space="preserve">
<g>
	<g>
		<path d="M256,0C165.372,0,91.641,73.73,91.642,164.358c0,23.865,5.014,46.897,14.902,68.454c0.074,0.161,0.151,0.322,0.231,0.48
			L242.325,503.56c2.594,5.17,7.88,8.435,13.664,8.44c0.004,0,0.008,0,0.011,0c5.779,0,11.066-3.258,13.666-8.419
			c21.908-43.525,130.047-258.398,135.787-270.77l0.003,0.001c9.888-21.558,14.902-44.589,14.902-68.454
			C420.358,73.73,346.628,0,256,0z M377.645,220.055c-0.041,0.09-0.081,0.18-0.12,0.27c-3.185,6.957-69.958,139.867-121.501,242.3
			L134.247,219.82c-7.968-17.46-12.009-36.118-12.009-55.463c0-73.755,60.006-133.761,133.762-133.761
			s133.761,60.005,133.761,133.761C389.761,183.789,385.684,202.528,377.645,220.055z"/>
	</g>
</g>
<g>
	<g>
		<path d="M256,91.815c-39.928,0-72.412,32.485-72.412,72.412c0,39.928,32.485,72.412,72.412,72.412s72.412-32.485,72.412-72.412
			C328.412,124.299,295.928,91.815,256,91.815z M256,206.043c-23.057,0-41.816-18.759-41.816-41.816s18.759-41.816,41.816-41.816
			s41.816,18.759,41.816,41.816S279.057,206.043,256,206.043z"/>
	</g>
</g>
<g>
</g>
<g>
</g>
<g>
</g>
<g>
</g>
<g>
</g>
<g>
</g>
<g>
</g>
<g>
</g>
<g>
</g>
<g>
</g>
<g>
</g>
<g>
</g>
<g>
</g>
<g>
</g>
<g>
</g>
</svg>
