<?xml version="1.0" encoding="iso-8859-1"?>
<!-- Generator: Adobe Illustrator 19.0.0, SVG Export Plug-In . SVG Version: 6.00 Build 0)  -->
<svg version="1.1" id="Capa_1" xmlns="http://www.w3.org/2000/svg" xmlns:xlink="http://www.w3.org/1999/xlink" x="0px" y="0px"
	 viewBox="0 0 511.999 511.999" style="enable-background:new 0 0 511.999 511.999;" xml:space="preserve">
<g>
	<g>
		<path d="M149.964,262.306h-33.43v-88.875c0-8.316-6.742-15.059-15.059-15.059c-8.316,0-15.059,6.742-15.059,15.059v103.934
			c0,8.316,6.742,15.059,15.059,15.059h48.489c8.316,0,15.059-6.742,15.059-15.059C165.023,269.048,158.281,262.306,149.964,262.306
			z"/>
	</g>
</g>
<g>
	<g>
		<path d="M410.525,240.456c8.316,0,15.059-6.742,15.059-15.059c0-8.316-6.742-15.059-15.059-15.059h-33.43V188.49h33.43v0
			c8.316,0,15.059-6.742,15.059-15.059c0-8.316-6.742-15.059-15.059-15.059h-48.489c-8.316,0-15.059,6.742-15.059,15.059v103.934
			c0,8.316,6.742,15.059,15.059,15.059h48.489c8.316,0,15.059-6.742,15.059-15.059c0-8.316-6.742-15.059-15.059-15.059h-33.43
			v-21.85H410.525z"/>
	</g>
</g>
<g>
	<g>
		<path d="M194.255,158.372c-8.316,0-15.059,6.742-15.059,15.059v103.934c0,8.316,6.742,15.059,15.059,15.059
			s15.059-6.742,15.059-15.059V173.431C209.313,165.115,202.571,158.372,194.255,158.372z"/>
	</g>
</g>
<g>
	<g>
		<path d="M317.746,158.372c-8.316,0-15.059,6.742-15.059,15.059v59.967l-52.126-69.04c-3.9-5.165-10.665-7.262-16.802-5.205
			c-6.138,2.057-10.274,7.805-10.274,14.279v103.934c0,8.316,6.742,15.059,15.059,15.059s15.059-6.742,15.059-15.059v-58.998
			l52.127,69.04c2.901,3.843,7.386,5.986,12.02,5.986c1.596,0,3.211-0.254,4.784-0.781c6.137-2.057,10.273-7.805,10.273-14.279
			V173.431C332.805,165.115,326.063,158.372,317.746,158.372z"/>
	</g>
</g>
<g>
	<g>
		<path d="M435.407,86.059C387.309,49.986,323.594,30.12,256,30.12c-67.595,0-131.309,19.866-179.407,55.939
			C27.202,123.102,0,172.759,0,225.882c0,53.124,27.202,102.78,76.593,139.824c44.509,33.382,102.391,52.885,164.348,55.609v45.506
			c0,8.316,6.742,15.059,15.059,15.059c34.15,0,67.977-8.289,100.542-24.638c29.597-14.86,56.816-35.625,80.896-61.719
			c46.689-50.593,74.561-114.01,74.561-169.64C512,172.759,484.799,123.102,435.407,86.059z M415.305,375.096
			c-41.607,45.088-92.325,71.7-144.247,76.036v-44.547c0-8.316-6.742-15.059-15.059-15.059
			c-124.552,0-225.883-74.308-225.883-165.645S131.448,60.237,256,60.237s225.883,74.308,225.883,165.645
			C481.883,273.419,456.371,330.595,415.305,375.096z"/>
	</g>
</g>
<g>
</g>
<g>
</g>
<g>
</g>
<g>
</g>
<g>
</g>
<g>
</g>
<g>
</g>
<g>
</g>
<g>
</g>
<g>
</g>
<g>
</g>
<g>
</g>
<g>
</g>
<g>
</g>
<g>
</g>
</svg>
