<?xml version="1.0" encoding="iso-8859-1"?>
<!-- Generator: Adobe Illustrator 19.0.0, SVG Export Plug-In . SVG Version: 6.00 Build 0)  -->
<svg version="1.1" id="Capa_1" xmlns="http://www.w3.org/2000/svg" xmlns:xlink="http://www.w3.org/1999/xlink" x="0px" y="0px"
	 viewBox="0 0 512 512" style="enable-background:new 0 0 512 512;" xml:space="preserve">
<g>
	<g>
		<path d="M298.376,210.943H156.757c-8.36,0-15.138,6.778-15.138,15.138v59.84c0,8.36,6.778,15.138,15.138,15.138h53.259
			c-12.397,18.528-32.024,30.022-53.259,30.022c-36.747,0-66.643-33.681-66.643-75.079c0-41.398,29.896-75.079,66.643-75.079
			c15.056,0,29.274,5.551,41.116,16.051c6.256,5.548,15.823,4.972,21.37-1.283l39.703-44.771c2.663-3.003,4.025-6.943,3.785-10.951
			c-0.24-4.008-2.063-7.756-5.067-10.42c-28.174-24.984-64.009-38.743-100.906-38.743C70.321,90.806,0,164.912,0,256
			s70.321,165.194,156.757,165.194c86.437,0,156.757-74.105,156.757-165.194v-29.92
			C313.514,217.721,306.736,210.943,298.376,210.943z M283.238,256c0,74.394-56.739,134.918-126.481,134.918
			S30.276,330.396,30.276,256s56.739-134.919,126.481-134.919c24.519,0,48.495,7.642,68.89,21.756l-19.775,22.299
			c-14.795-9.522-31.526-14.491-49.115-14.491c-53.441,0-96.918,47.263-96.918,105.355c0,58.092,43.477,105.355,96.918,105.355
			c41.239,0,78.04-28.463,91.577-70.829c1.471-4.604,0.656-9.633-2.194-13.535c-2.85-3.903-7.392-6.211-12.225-6.211h-62.019
			v-29.563h111.343V256z"/>
	</g>
</g>
<g>
	<g>
		<path d="M496.862,210.946h-27.496V183.45c0-8.36-6.778-15.138-15.138-15.138H394.39c-8.36,0-15.138,6.778-15.138,15.138v27.496
			h-27.496c-8.36,0-15.138,6.778-15.138,15.138v59.839c0,8.36,6.778,15.138,15.138,15.138h27.496v27.496
			c0,8.36,6.778,15.138,15.138,15.138h59.838c8.361,0,15.138-6.778,15.138-15.138v-27.496h27.496c8.36,0,15.138-6.778,15.138-15.138
			v-59.839C512,217.724,505.222,210.946,496.862,210.946z M481.724,270.785h-27.496c-8.36,0-15.138,6.778-15.138,15.138v27.496
			h-29.562h0v-27.496c0-8.36-6.778-15.138-15.138-15.138h-27.496v-29.563h27.496c8.36,0,15.138-6.778,15.138-15.138v-27.496h29.562
			v27.496c0,8.36,6.778,15.138,15.138,15.138h27.496V270.785z"/>
	</g>
</g>
<g>
</g>
<g>
</g>
<g>
</g>
<g>
</g>
<g>
</g>
<g>
</g>
<g>
</g>
<g>
</g>
<g>
</g>
<g>
</g>
<g>
</g>
<g>
</g>
<g>
</g>
<g>
</g>
<g>
</g>
</svg>
