<?xml version="1.0" encoding="iso-8859-1"?>
<!-- Generator: Adobe Illustrator 19.0.0, SVG Export Plug-In . SVG Version: 6.00 Build 0)  -->
<svg version="1.1" id="Capa_1" xmlns="http://www.w3.org/2000/svg" xmlns:xlink="http://www.w3.org/1999/xlink" x="0px" y="0px"
	 viewBox="0 0 512.001 512.001" style="enable-background:new 0 0 512.001 512.001;" xml:space="preserve">
<g>
	<g>
		<path d="M505.039,253.149l-100.565-64.234l100.565-64.234c4.337-2.77,6.962-7.561,6.962-12.708c0-5.147-2.625-9.937-6.962-12.708
			l-120.46-76.943c-4.949-3.163-11.285-3.162-16.233,0L256,94.081L143.656,22.322c-4.95-3.162-11.284-3.162-16.233,0L6.963,99.265
			C2.625,102.036,0,106.827,0,111.973s2.625,9.938,6.963,12.708l100.565,64.234L6.963,253.149C2.625,255.92,0,260.71,0,265.857
			c0,5.147,2.625,9.938,6.963,12.708l120.46,76.942c2.475,1.581,5.296,2.371,8.117,2.371s5.643-0.791,8.117-2.37L256,283.75
			l112.344,71.757c2.475,1.58,5.296,2.37,8.117,2.37s5.642-0.79,8.117-2.371l120.46-76.942c4.337-2.77,6.963-7.561,6.963-12.708
			C512,260.71,509.375,255.92,505.039,253.149z M376.461,52.924l92.448,59.05l-92.448,59.049l-92.448-59.049L376.461,52.924z
			 M43.091,111.974l92.448-59.05l92.448,59.05l-92.448,59.049L43.091,111.974z M135.539,324.906l-92.448-59.049l92.448-59.05
			l92.448,59.05L135.539,324.906z M163.552,188.915L256,129.867l92.448,59.049L256,247.965L163.552,188.915z M376.461,324.906
			l-92.448-59.049l92.448-59.05l92.448,59.05L376.461,324.906z"/>
	</g>
</g>
<g>
	<g>
		<path d="M384.579,387.32l-120.462-76.942c-4.95-3.162-11.284-3.162-16.233,0L127.422,387.32
			c-4.337,2.771-6.963,7.562-6.963,12.709c0,5.147,2.625,9.938,6.963,12.708l120.461,76.943c2.475,1.58,5.296,2.37,8.117,2.37
			s5.642-0.79,8.117-2.37l120.461-76.943c4.337-2.77,6.963-7.561,6.963-12.708C391.54,394.882,388.915,390.091,384.579,387.32z
			 M256,459.078l-92.448-59.05L256,340.979l92.448,59.049L256,459.078z"/>
	</g>
</g>
<g>
</g>
<g>
</g>
<g>
</g>
<g>
</g>
<g>
</g>
<g>
</g>
<g>
</g>
<g>
</g>
<g>
</g>
<g>
</g>
<g>
</g>
<g>
</g>
<g>
</g>
<g>
</g>
<g>
</g>
</svg>
