<?xml version="1.0" encoding="iso-8859-1"?>
<!-- Generator: Adobe Illustrator 19.0.0, SVG Export Plug-In . SVG Version: 6.00 Build 0)  -->
<svg version="1.1" id="Capa_1" xmlns="http://www.w3.org/2000/svg" xmlns:xlink="http://www.w3.org/1999/xlink" x="0px" y="0px"
	 viewBox="0 0 512 512" style="enable-background:new 0 0 512 512;" xml:space="preserve">
<g>
	<g>
		<path d="M388.941,331.356c-15.107,0-29.357,3.733-41.884,10.319L213.35,258.343c0.02-0.778,0.03-1.56,0.03-2.343
			c0-0.789-0.01-1.577-0.03-2.361l133.487-83.429c12.579,6.657,26.909,10.435,42.104,10.435c49.803,0,90.322-40.518,90.322-90.321
			C479.263,40.518,438.744,0,388.941,0c-49.803,0-90.321,40.518-90.321,90.322c0,0.83,0.013,1.658,0.036,2.483l-133.462,83.323
			c-12.588-6.667-26.926-10.451-42.135-10.451c-49.803,0-90.322,40.518-90.322,90.322s40.519,90.322,90.322,90.322
			c15.138,0,29.415-3.749,41.96-10.359l133.645,82.993c-0.027,0.904-0.045,1.81-0.045,2.722c0,49.804,40.518,90.322,90.321,90.322
			c49.803,0,90.322-40.518,90.322-90.322C479.263,371.874,438.744,331.356,388.941,331.356z M388.941,30.444
			c33.017,0,59.878,26.862,59.878,59.878S421.957,150.2,388.941,150.2c-33.017,0-59.877-26.861-59.877-59.877
			C329.063,57.306,355.924,30.444,388.941,30.444z M305.348,124.516c3.89,9.475,9.344,18.148,16.043,25.694l-114.702,71.689
			c-3.888-9.501-9.348-18.195-16.058-25.761L305.348,124.516z M123.058,315.878c-33.017,0-59.878-26.862-59.878-59.878
			c0-33.017,26.862-59.878,59.878-59.878c33.017,0,59.877,26.862,59.877,59.878C182.936,289.017,156.075,315.878,123.058,315.878z
			 M305.417,387.314l-114.884-71.343c6.762-7.599,12.26-16.342,16.168-25.9l114.826,71.565
			C314.806,369.175,309.328,377.841,305.417,387.314z M388.941,481.556c-33.017,0-59.877-26.862-59.877-59.878
			c0-33.017,26.861-59.877,59.877-59.877c33.017,0,59.878,26.861,59.878,59.877C448.819,454.694,421.957,481.556,388.941,481.556z"
			/>
	</g>
</g>
<g>
</g>
<g>
</g>
<g>
</g>
<g>
</g>
<g>
</g>
<g>
</g>
<g>
</g>
<g>
</g>
<g>
</g>
<g>
</g>
<g>
</g>
<g>
</g>
<g>
</g>
<g>
</g>
<g>
</g>
</svg>
