<?xml version="1.0" encoding="iso-8859-1"?>
<!-- Generator: Adobe Illustrator 19.0.0, SVG Export Plug-In . SVG Version: 6.00 Build 0)  -->
<svg version="1.1" id="Capa_1" xmlns="http://www.w3.org/2000/svg" xmlns:xlink="http://www.w3.org/1999/xlink" x="0px" y="0px"
	 viewBox="0 0 512 512" style="enable-background:new 0 0 512 512;" xml:space="preserve">
<g>
	<g>
		<path d="M507.536,443.61L365.393,301.466l61.605-61.605c4.302-4.302,5.633-10.752,3.384-16.406
			c-2.248-5.653-7.645-9.428-13.728-9.6l-90.806-2.568L188.188,90.679l-3.755-76.19c-0.297-6.02-4.113-11.299-9.736-13.467
			c-5.626-2.17-11.996-0.819-16.258,3.443L4.464,158.438c-4.262,4.262-5.611,10.634-3.443,16.257
			c2.169,5.624,7.448,9.44,13.467,9.737l76.192,3.757L211.289,325.85l2.565,90.803c0.172,6.082,3.946,11.479,9.6,13.729
			c1.827,0.726,3.735,1.08,5.629,1.08c3.968,0,7.865-1.551,10.777-4.464l61.605-61.605l142.143,142.144
			c2.858,2.858,6.733,4.464,10.774,4.464h42.378c8.415,0,15.238-6.823,15.238-15.238v-42.376
			C511.999,450.343,510.394,446.468,507.536,443.61z M243.32,380.44l-1.722-60.935c-0.101-3.544-1.433-6.943-3.771-9.611
			l-128.48-146.648c-2.721-3.107-6.586-4.975-10.71-5.178l-48.32-2.382l105.369-105.37l2.381,48.317
			c0.203,4.124,2.072,7.99,5.178,10.711l146.648,128.48c2.668,2.337,6.067,3.67,9.611,3.771l60.938,1.723L243.32,380.44z
			 M481.523,481.523h-20.827L323.017,343.842l20.826-20.826l137.68,137.681V481.523z"/>
	</g>
</g>
<g>
</g>
<g>
</g>
<g>
</g>
<g>
</g>
<g>
</g>
<g>
</g>
<g>
</g>
<g>
</g>
<g>
</g>
<g>
</g>
<g>
</g>
<g>
</g>
<g>
</g>
<g>
</g>
<g>
</g>
</svg>
