<?xml version="1.0" encoding="iso-8859-1"?>
<!-- Generator: Adobe Illustrator 19.0.0, SVG Export Plug-In . SVG Version: 6.00 Build 0)  -->
<svg version="1.1" id="Capa_1" xmlns="http://www.w3.org/2000/svg" xmlns:xlink="http://www.w3.org/1999/xlink" x="0px" y="0px"
	 viewBox="0 0 512 512" style="enable-background:new 0 0 512 512;" xml:space="preserve">
<g>
	<g>
		<path d="M441.065,228.969c0.037-1.336,0.056-2.668,0.056-3.995c0-81.12-65.996-147.117-147.117-147.117
			c-52.083,0-99.573,27.314-125.955,71.038c-11.556-7.326-25.055-11.325-39.047-11.325c-40.25,0-72.995,32.745-72.995,72.995
			c0,7.892,1.266,15.656,3.721,23.032C23.835,250.941,0,287.832,0,328.657c0,58.166,47.321,105.486,105.486,105.486h309.921
			c1.891,0,3.702-0.339,5.375-0.961c24.451-3.312,46.945-15.102,63.693-33.466C502.225,380.252,512,355.017,512,328.658
			C512,283.444,482.874,243.481,441.065,228.969z M413.9,402.922c-0.732,0.073-1.449,0.194-2.147,0.364H105.486
			c-41.15,0-74.629-33.479-74.629-74.629c0-33.201,22.273-62.722,54.165-71.792c4.719-1.342,8.52-4.848,10.234-9.444
			s1.143-9.734-1.543-13.84c-4.48-6.851-6.849-14.809-6.849-23.015c0-23.235,18.903-42.138,42.138-42.138
			c12.364,0,24.064,5.416,32.099,14.857c3.463,4.07,8.788,6.058,14.066,5.255c5.283-0.802,9.773-4.28,11.873-9.193
			c18.329-42.908,60.315-70.634,106.964-70.634c64.106,0,116.26,52.154,116.26,116.26c0,4.515-0.272,9.12-0.806,13.687
			c-0.93,7.949,4.372,15.291,12.211,16.905c34.463,7.1,59.475,37.84,59.475,73.091C481.142,367.237,452.235,399.164,413.9,402.922z"
			/>
	</g>
</g>
<g>
</g>
<g>
</g>
<g>
</g>
<g>
</g>
<g>
</g>
<g>
</g>
<g>
</g>
<g>
</g>
<g>
</g>
<g>
</g>
<g>
</g>
<g>
</g>
<g>
</g>
<g>
</g>
<g>
</g>
</svg>
