<?xml version="1.0" encoding="UTF-8"?>
<!DOCTYPE svg PUBLIC "-//W3C//DTD SVG 1.1//EN" "http://www.w3.org/Graphics/SVG/1.1/DTD/svg11.dtd">
<svg xmlns="http://www.w3.org/2000/svg" version="1.1" width="1400px" height="489px" style="shape-rendering:geometricPrecision; text-rendering:geometricPrecision; image-rendering:optimizeQuality; fill-rule:evenodd; clip-rule:evenodd" xmlns:xlink="http://www.w3.org/1999/xlink">
<g><path style="opacity:0.983" fill="#028737" d="M 48.5,84.5 C 156.833,84.5 265.167,84.5 373.5,84.5C 373.5,192.833 373.5,301.167 373.5,409.5C 265.167,409.5 156.833,409.5 48.5,409.5C 48.5,301.167 48.5,192.833 48.5,84.5 Z M 85.5,121.5 C 169.167,121.5 252.833,121.5 336.5,121.5C 336.5,205.167 336.5,288.833 336.5,372.5C 252.833,372.5 169.167,372.5 85.5,372.5C 85.5,288.833 85.5,205.167 85.5,121.5 Z"/></g>
<g><path style="opacity:0.86" fill="#028737" d="M 1286.5,110.5 C 1306.41,110.07 1317.74,119.736 1320.5,139.5C 1317.19,161.643 1304.53,170.809 1282.5,167C 1267.4,160.987 1260.9,149.82 1263,133.5C 1266.13,120.873 1273.96,113.206 1286.5,110.5 Z M 1306.5,154.5 C 1298.5,162.292 1289.5,163.459 1279.5,158C 1266.17,145.667 1266.17,133.333 1279.5,121C 1297.96,113.944 1309.29,120.111 1313.5,139.5C 1313.01,145.466 1310.68,150.466 1306.5,154.5 Z M 1287.5,130.5 C 1292.67,129.492 1294.33,131.325 1292.5,136C 1290.87,136.494 1289.2,136.66 1287.5,136.5C 1287.5,134.5 1287.5,132.5 1287.5,130.5 Z"/></g>
<g><path style="opacity:0.865" fill="#028737" d="M 1306.5,154.5 C 1303.48,154.665 1300.48,154.498 1297.5,154C 1295.29,151.079 1293.45,147.912 1292,144.5C 1290.64,143.62 1289.14,143.286 1287.5,143.5C 1287.5,146.833 1287.5,150.167 1287.5,153.5C 1284.5,153.5 1281.5,153.5 1278.5,153.5C 1278.5,143.5 1278.5,133.5 1278.5,123.5C 1283.84,123.334 1289.18,123.501 1294.5,124C 1301.34,124.821 1303.84,128.654 1302,135.5C 1301.22,137.286 1300.05,138.786 1298.5,140C 1302.08,144.325 1304.75,149.158 1306.5,154.5 Z M 1287.5,130.5 C 1287.5,132.5 1287.5,134.5 1287.5,136.5C 1289.2,136.66 1290.87,136.494 1292.5,136C 1294.33,131.325 1292.67,129.492 1287.5,130.5 Z"/></g>
<g><path style="opacity:0.973" fill="#c4d200" d="M 201.5,156.5 C 234.833,156.5 268.167,156.5 301.5,156.5C 301.5,168.833 301.5,181.167 301.5,193.5C 269.498,193.333 237.498,193.5 205.5,194C 179.232,198.268 163.398,213.435 158,239.5C 156,269.485 169.167,289.318 197.5,299C 221.821,303.895 241.321,296.395 256,276.5C 256.667,292.833 256.667,309.167 256,325.5C 237.911,336.045 218.411,339.878 197.5,337C 164.59,330.966 141.09,312.8 127,282.5C 111.875,237.802 122.709,200.969 159.5,172C 172.476,163.734 186.476,158.567 201.5,156.5 Z"/></g>
<g><path style="opacity:0.976" fill="#028737" d="M 504.5,166.5 C 524.167,166.5 543.833,166.5 563.5,166.5C 563.5,177.5 563.5,188.5 563.5,199.5C 543.46,199.075 523.46,199.575 503.5,201C 480.789,208.211 468.789,223.711 467.5,247.5C 470.261,276.428 486.094,292.095 515,294.5C 536.152,293.845 550.985,283.845 559.5,264.5C 544.515,263.501 529.515,263.167 514.5,263.5C 514.5,252.5 514.5,241.5 514.5,230.5C 541.5,230.5 568.5,230.5 595.5,230.5C 595.5,263.167 595.5,295.833 595.5,328.5C 584.5,328.5 573.5,328.5 562.5,328.5C 562.827,323.456 562.494,318.456 561.5,313.5C 530.077,333.584 498.744,333.418 467.5,313C 436.353,287.265 427.187,255.098 440,216.5C 452.711,188.405 474.211,171.738 504.5,166.5 Z"/></g>
<g><path style="opacity:0.975" fill="#028737" d="M 627.5,166.5 C 670.5,166.5 713.5,166.5 756.5,166.5C 756.5,177.5 756.5,188.5 756.5,199.5C 724.5,199.5 692.5,199.5 660.5,199.5C 660.5,209.833 660.5,220.167 660.5,230.5C 692.5,230.5 724.5,230.5 756.5,230.5C 756.5,241.5 756.5,252.5 756.5,263.5C 724.5,263.5 692.5,263.5 660.5,263.5C 660.5,273.833 660.5,284.167 660.5,294.5C 692.5,294.5 724.5,294.5 756.5,294.5C 756.5,305.833 756.5,317.167 756.5,328.5C 713.5,328.5 670.5,328.5 627.5,328.5C 627.5,274.5 627.5,220.5 627.5,166.5 Z"/></g>
<g><path style="opacity:0.98" fill="#028737" d="M 788.5,166.5 C 842.5,166.5 896.5,166.5 950.5,166.5C 950.5,177.5 950.5,188.5 950.5,199.5C 929.167,199.5 907.833,199.5 886.5,199.5C 886.5,242.5 886.5,285.5 886.5,328.5C 875.5,328.5 864.5,328.5 853.5,328.5C 853.5,285.5 853.5,242.5 853.5,199.5C 831.833,199.5 810.167,199.5 788.5,199.5C 788.5,188.5 788.5,177.5 788.5,166.5 Z"/></g>
<g><path style="opacity:0.975" fill="#028737" d="M 981.5,166.5 C 1012.87,166.038 1044.21,166.538 1075.5,168C 1102.87,178.057 1114.37,197.557 1110,226.5C 1102.59,250.96 1086.09,263.46 1060.5,264C 1077.69,285.022 1094.69,306.189 1111.5,327.5C 1096.18,328.666 1080.84,328.833 1065.5,328C 1048.67,307.167 1031.83,286.333 1015,265.5C 1014.5,286.497 1014.33,307.497 1014.5,328.5C 1003.5,328.5 992.5,328.5 981.5,328.5C 981.5,274.5 981.5,220.5 981.5,166.5 Z M 1014.5,199.5 C 1031.5,199.333 1048.5,199.5 1065.5,200C 1077.71,204.657 1080.87,212.823 1075,224.5C 1072.56,226.969 1069.73,228.802 1066.5,230C 1049.17,230.5 1031.84,230.667 1014.5,230.5C 1014.5,220.167 1014.5,209.833 1014.5,199.5 Z"/></g>
<g><path style="opacity:0.976" fill="#028737" d="M 1198.5,166.5 C 1229.92,164.623 1252.76,177.623 1267,205.5C 1268.74,210.054 1270.07,214.721 1271,219.5C 1271.5,255.832 1271.67,292.165 1271.5,328.5C 1260.5,328.5 1249.5,328.5 1238.5,328.5C 1238.5,317.5 1238.5,306.5 1238.5,295.5C 1217.5,295.5 1196.5,295.5 1175.5,295.5C 1175.5,306.5 1175.5,317.5 1175.5,328.5C 1164.5,328.5 1153.5,328.5 1142.5,328.5C 1142.33,293.165 1142.5,257.832 1143,222.5C 1149.01,191.321 1167.51,172.654 1198.5,166.5 Z M 1202.5,199.5 C 1220.57,199.084 1232.41,207.417 1238,224.5C 1238.5,237.162 1238.67,249.829 1238.5,262.5C 1217.5,262.5 1196.5,262.5 1175.5,262.5C 1175.33,250.495 1175.5,238.495 1176,226.5C 1179.01,211.654 1187.85,202.654 1202.5,199.5 Z"/></g>
<g><path style="opacity:0.983" fill="#028737" d="M 210.5,228.5 C 240.833,228.5 271.167,228.5 301.5,228.5C 301.5,264.833 301.5,301.167 301.5,337.5C 289.167,337.5 276.833,337.5 264.5,337.5C 264.5,313.5 264.5,289.5 264.5,265.5C 246.5,265.5 228.5,265.5 210.5,265.5C 210.5,253.167 210.5,240.833 210.5,228.5 Z"/></g>
<g><path style="opacity:0.771" fill="#028737" d="M 530.5,343.5 C 534.212,344.418 537.878,344.418 541.5,343.5C 542.127,346.864 540.794,348.864 537.5,349.5C 534.47,348.977 531.47,348.644 528.5,348.5C 529.174,346.805 529.841,345.138 530.5,343.5 Z"/></g>
<g><path style="opacity:0.822" fill="#028737" d="M 491.5,349.5 C 494.528,349.965 497.362,350.965 500,352.5C 500.507,353.996 500.007,355.163 498.5,356C 486.861,355.82 486.861,357.82 498.5,362C 503.001,369.177 501.001,373.677 492.5,375.5C 488.945,375.209 485.945,373.875 483.5,371.5C 484.48,370.019 485.647,368.685 487,367.5C 489.779,369.797 492.612,369.964 495.5,368C 492.938,365.587 489.938,363.92 486.5,363C 482.61,356.184 484.277,351.684 491.5,349.5 Z"/></g>
<g><path style="opacity:0.816" fill="#028737" d="M 663.5,349.5 C 667.179,349.751 670.513,350.918 673.5,353C 671.576,356.364 668.91,357.198 665.5,355.5C 664,355.453 663,356.119 662.5,357.5C 665.964,359.317 669.298,361.317 672.5,363.5C 674.206,373.942 669.873,377.442 659.5,374C 658.09,373.632 657.09,372.799 656.5,371.5C 657.48,370.019 658.647,368.685 660,367.5C 662.228,369.113 664.728,369.78 667.5,369.5C 667.67,368.178 667.337,367.011 666.5,366C 658.157,364.7 655.324,360.2 658,352.5C 659.876,351.391 661.709,350.391 663.5,349.5 Z"/></g>
<g><path style="opacity:0.828" fill="#028737" d="M 441.5,350.5 C 445.182,350.335 448.848,350.501 452.5,351C 458.293,353.185 458.627,355.685 453.5,358.5C 447.08,353.681 442.413,355.015 439.5,362.5C 441.966,369.68 446.299,371.18 452.5,367C 450.866,366.506 449.199,366.34 447.5,366.5C 447.5,364.833 447.5,363.167 447.5,361.5C 450.833,361.5 454.167,361.5 457.5,361.5C 457.789,365.106 457.456,368.606 456.5,372C 448.961,376.906 442.128,376.073 436,369.5C 432.772,361.559 434.605,355.226 441.5,350.5 Z"/></g>
<g><path style="opacity:0.788" fill="#028737" d="M 462.5,350.5 C 468.167,350.5 473.833,350.5 479.5,350.5C 479.5,352.167 479.5,353.833 479.5,355.5C 475.833,355.5 472.167,355.5 468.5,355.5C 468.5,356.833 468.5,358.167 468.5,359.5C 472.167,359.5 475.833,359.5 479.5,359.5C 479.5,361.167 479.5,362.833 479.5,364.5C 475.833,364.5 472.167,364.5 468.5,364.5C 468.5,366.167 468.5,367.833 468.5,369.5C 472.167,369.5 475.833,369.5 479.5,369.5C 479.5,371.167 479.5,372.833 479.5,374.5C 473.833,374.5 468.167,374.5 462.5,374.5C 462.5,366.5 462.5,358.5 462.5,350.5 Z"/></g>
<g><path style="opacity:0.873" fill="#028737" d="M 504.5,350.5 C 510.833,350.5 517.167,350.5 523.5,350.5C 523.5,352.167 523.5,353.833 523.5,355.5C 521.167,355.5 518.833,355.5 516.5,355.5C 516.5,361.833 516.5,368.167 516.5,374.5C 514.833,374.5 513.167,374.5 511.5,374.5C 511.5,368.167 511.5,361.833 511.5,355.5C 509.167,355.5 506.833,355.5 504.5,355.5C 504.5,353.833 504.5,352.167 504.5,350.5 Z"/></g>
<g><path style="opacity:0.832" fill="#028737" d="M 532.5,350.5 C 534.467,350.261 536.301,350.594 538,351.5C 541.773,358.712 545.273,366.045 548.5,373.5C 544.908,375.3 542.241,374.466 540.5,371C 538.667,370.833 536.833,370.667 535,370.5C 530.972,372.182 526.805,373.516 522.5,374.5C 525.827,366.511 529.16,358.511 532.5,350.5 Z M 534.5,359.5 C 540.064,364.426 539.398,366.26 532.5,365C 533.464,363.275 534.131,361.441 534.5,359.5 Z"/></g>
<g><path style="opacity:0.845" fill="#028737" d="M 557.5,350.5 C 570.271,348.442 576.105,353.776 575,366.5C 572.935,372.293 568.768,375.293 562.5,375.5C 552.383,373.545 548.55,367.545 551,357.5C 552.694,354.642 554.861,352.309 557.5,350.5 Z M 560.5,355.5 C 568.187,355.568 571.02,359.235 569,366.5C 561.079,371.918 556.746,369.918 556,360.5C 557.025,358.313 558.525,356.646 560.5,355.5 Z"/></g>
<g><path style="opacity:0.854" fill="#028737" d="M 593.5,350.5 C 598.833,350.5 604.167,350.5 609.5,350.5C 609.5,352.167 609.5,353.833 609.5,355.5C 605.833,355.5 602.167,355.5 598.5,355.5C 598.5,356.833 598.5,358.167 598.5,359.5C 602.167,359.5 605.833,359.5 609.5,359.5C 609.5,361.167 609.5,362.833 609.5,364.5C 605.833,364.5 602.167,364.5 598.5,364.5C 598.5,366.167 598.5,367.833 598.5,369.5C 602.167,369.5 605.833,369.5 609.5,369.5C 609.5,371.167 609.5,372.833 609.5,374.5C 604.167,374.5 598.833,374.5 593.5,374.5C 593.5,366.5 593.5,358.5 593.5,350.5 Z"/></g>
<g><path style="opacity:0.833" fill="#028737" d="M 614.5,350.5 C 616.924,350.192 619.257,350.526 621.5,351.5C 622.831,354.834 624.665,357.834 627,360.5C 628.833,357.5 630.667,354.5 632.5,351.5C 634.396,350.534 636.396,350.201 638.5,350.5C 638.5,358.5 638.5,366.5 638.5,374.5C 636.833,374.5 635.167,374.5 633.5,374.5C 633.666,370.154 633.499,365.821 633,361.5C 631.069,365.04 628.902,368.374 626.5,371.5C 624.667,368.5 622.833,365.5 621,362.5C 620.501,366.486 620.334,370.486 620.5,374.5C 618.5,374.5 616.5,374.5 614.5,374.5C 614.5,366.5 614.5,358.5 614.5,350.5 Z"/></g>
<g><path style="opacity:0.788" fill="#028737" d="M 678.5,350.5 C 684.167,350.5 689.833,350.5 695.5,350.5C 695.5,352.167 695.5,353.833 695.5,355.5C 691.833,355.5 688.167,355.5 684.5,355.5C 684.5,356.833 684.5,358.167 684.5,359.5C 687.833,359.5 691.167,359.5 694.5,359.5C 694.5,361.167 694.5,362.833 694.5,364.5C 691.167,364.5 687.833,364.5 684.5,364.5C 684.5,366.167 684.5,367.833 684.5,369.5C 688.167,369.5 691.833,369.5 695.5,369.5C 695.5,371.167 695.5,372.833 695.5,374.5C 689.833,374.5 684.167,374.5 678.5,374.5C 678.5,366.5 678.5,358.5 678.5,350.5 Z"/></g>
<g><path style="opacity:0.817" fill="#028737" d="M 707.5,350.5 C 711.182,350.335 714.848,350.501 718.5,351C 723.257,353.066 723.59,355.566 719.5,358.5C 714.59,354.183 710.09,354.517 706,359.5C 704.5,367.333 707.667,370.5 715.5,369C 716.308,368.692 716.975,368.192 717.5,367.5C 715.955,366.548 714.288,366.215 712.5,366.5C 712.5,364.833 712.5,363.167 712.5,361.5C 715.833,361.5 719.167,361.5 722.5,361.5C 724.945,370.379 721.612,375.046 712.5,375.5C 700.547,372.833 697.047,365.833 702,354.5C 703.812,353.023 705.645,351.69 707.5,350.5 Z"/></g>
<g><path style="opacity:0.839" fill="#028737" d="M 727.5,350.5 C 729.5,350.5 731.5,350.5 733.5,350.5C 733.334,355.844 733.501,361.177 734,366.5C 738.439,370.946 741.773,370.279 744,364.5C 744.499,359.845 744.666,355.179 744.5,350.5C 746.167,350.5 747.833,350.5 749.5,350.5C 749.666,356.509 749.499,362.509 749,368.5C 744.615,375.388 738.782,376.888 731.5,373C 730.789,371.745 729.956,370.579 729,369.5C 727.683,363.243 727.183,356.909 727.5,350.5 Z"/></g>
<g><path style="opacity:0.845" fill="#028737" d="M 755.5,350.5 C 759.846,350.334 764.179,350.501 768.5,351C 773.436,354.958 773.769,359.291 769.5,364C 771.122,367.027 772.455,370.194 773.5,373.5C 771.5,374.833 769.5,374.833 767.5,373.5C 766.764,371.459 765.931,369.459 765,367.5C 763.89,365.963 762.39,365.297 760.5,365.5C 760.5,368.5 760.5,371.5 760.5,374.5C 758.833,374.5 757.167,374.5 755.5,374.5C 755.5,366.5 755.5,358.5 755.5,350.5 Z M 760.5,354.5 C 764.987,354.141 766.654,355.974 765.5,360C 763.866,360.494 762.199,360.66 760.5,360.5C 760.5,358.5 760.5,356.5 760.5,354.5 Z"/></g>
<g><path style="opacity:0.83" fill="#028737" d="M 787.5,350.5 C 789.288,350.215 790.955,350.548 792.5,351.5C 796.127,359.082 799.46,366.749 802.5,374.5C 798.195,373.516 794.028,372.182 790,370.5C 786.503,369.843 784.003,371.009 782.5,374C 780.421,374.808 778.421,374.641 776.5,373.5C 779.908,365.685 783.574,358.019 787.5,350.5 Z M 789.5,359.5 C 790.391,361.291 791.391,363.124 792.5,365C 790.5,365.667 788.5,365.667 786.5,365C 787.639,363.22 788.639,361.386 789.5,359.5 Z"/></g>
<g><path style="opacity:0.851" fill="#028737" d="M 807.5,350.5 C 809.527,350.338 811.527,350.505 813.5,351C 815.876,354.919 818.376,358.752 821,362.5C 821.499,358.514 821.666,354.514 821.5,350.5C 823.5,350.5 825.5,350.5 827.5,350.5C 827.5,358.5 827.5,366.5 827.5,374.5C 825.473,374.662 823.473,374.495 821.5,374C 818.292,369.753 815.458,365.253 813,360.5C 812.501,365.155 812.334,369.821 812.5,374.5C 810.833,374.5 809.167,374.5 807.5,374.5C 807.5,366.5 807.5,358.5 807.5,350.5 Z"/></g>
<g><path style="opacity:0.804" fill="#028737" d="M 840.5,350.5 C 843.85,350.335 847.183,350.502 850.5,351C 856.066,352.505 856.733,355.005 852.5,358.5C 843.65,352.883 839.15,355.216 839,365.5C 843.09,370.483 847.59,370.817 852.5,366.5C 855.926,368.26 856.259,370.426 853.5,373C 851.608,373.973 849.608,374.64 847.5,375C 850.054,377.398 850.054,379.731 847.5,382C 845.536,382.624 843.869,382.124 842.5,380.5C 843.5,379.833 844.5,379.167 845.5,378.5C 844.147,377.476 843.48,376.143 843.5,374.5C 836.436,373.764 832.769,369.764 832.5,362.5C 833.204,357.066 835.871,353.066 840.5,350.5 Z"/></g>
<g><path style="opacity:0.83" fill="#028737" d="M 868.5,350.5 C 870.467,350.261 872.301,350.594 874,351.5C 877.227,358.955 880.727,366.288 884.5,373.5C 880.908,375.3 878.241,374.466 876.5,371C 872.789,370.175 869.122,370.341 865.5,371.5C 863.572,374.268 860.905,375.102 857.5,374C 861.651,366.372 865.318,358.539 868.5,350.5 Z M 870.5,359.5 C 872.539,360.911 873.539,362.911 873.5,365.5C 871.712,365.785 870.045,365.452 868.5,364.5C 869.456,362.925 870.123,361.258 870.5,359.5 Z"/></g>
<g><path style="opacity:0.823" fill="#028737" d="M 900.5,350.5 C 906.762,349.872 912.762,350.705 918.5,353C 924.011,359.942 923.678,366.609 917.5,373C 911.956,374.404 906.29,374.904 900.5,374.5C 900.5,366.5 900.5,358.5 900.5,350.5 Z M 906.5,354.5 C 915.737,355.142 918.403,359.642 914.5,368C 911.986,369.252 909.32,369.752 906.5,369.5C 906.5,364.5 906.5,359.5 906.5,354.5 Z"/></g>
<g><path style="opacity:0.821" fill="#028737" d="M 934.5,350.5 C 947.269,348.445 953.102,353.779 952,366.5C 949.897,372.307 945.731,375.307 939.5,375.5C 928.786,373.293 924.953,366.96 928,356.5C 929.494,353.686 931.66,351.686 934.5,350.5 Z M 936.5,355.5 C 945.872,355.414 948.539,359.581 944.5,368C 936.398,370.895 932.565,368.062 933,359.5C 934.376,358.295 935.542,356.962 936.5,355.5 Z"/></g>
<g><path style="opacity:0.818" fill="#028737" d="M 968.5,350.5 C 974.5,350.5 980.5,350.5 986.5,350.5C 986.5,352.167 986.5,353.833 986.5,355.5C 984.5,355.5 982.5,355.5 980.5,355.5C 980.5,361.833 980.5,368.167 980.5,374.5C 978.5,374.5 976.5,374.5 974.5,374.5C 974.5,368.167 974.5,361.833 974.5,355.5C 972.5,355.5 970.5,355.5 968.5,355.5C 968.5,353.833 968.5,352.167 968.5,350.5 Z"/></g>
<g><path style="opacity:0.822" fill="#028737" d="M 991.5,350.5 C 995.846,350.334 1000.18,350.501 1004.5,351C 1009.42,354.866 1009.75,359.199 1005.5,364C 1007.35,367.211 1009.02,370.544 1010.5,374C 1008.19,374.497 1005.86,374.663 1003.5,374.5C 1003.17,371.689 1002.34,369.022 1001,366.5C 999.989,365.663 998.822,365.33 997.5,365.5C 997.5,368.5 997.5,371.5 997.5,374.5C 995.5,374.5 993.5,374.5 991.5,374.5C 991.5,366.5 991.5,358.5 991.5,350.5 Z M 997.5,354.5 C 1000.26,354.378 1002.26,355.545 1003.5,358C 1002.04,360.016 1000.04,360.849 997.5,360.5C 997.5,358.5 997.5,356.5 997.5,354.5 Z"/></g>
<g><path style="opacity:0.829" fill="#028737" d="M 1023.5,350.5 C 1025.29,350.215 1026.95,350.548 1028.5,351.5C 1032.31,358.954 1035.98,366.454 1039.5,374C 1036.09,375.102 1033.43,374.268 1031.5,371.5C 1027.88,370.341 1024.21,370.175 1020.5,371C 1018.82,374.297 1016.15,375.297 1012.5,374C 1016.31,366.216 1019.98,358.383 1023.5,350.5 Z M 1025.5,359.5 C 1026.73,360.937 1027.73,362.604 1028.5,364.5C 1026.83,365.833 1025.17,365.833 1023.5,364.5C 1024.17,362.805 1024.84,361.138 1025.5,359.5 Z"/></g>
<g><path style="opacity:0.88" fill="#028737" d="M 1043.5,350.5 C 1048.3,350.121 1052.96,350.621 1057.5,352C 1059.72,355.101 1060.05,358.435 1058.5,362C 1060.5,364.841 1061,368.007 1060,371.5C 1059.1,372.701 1057.93,373.535 1056.5,374C 1052.18,374.499 1047.85,374.666 1043.5,374.5C 1043.5,366.5 1043.5,358.5 1043.5,350.5 Z M 1048.5,354.5 C 1051.06,354.447 1053.06,355.447 1054.5,357.5C 1053.28,359.978 1051.28,360.978 1048.5,360.5C 1048.5,358.5 1048.5,356.5 1048.5,354.5 Z M 1048.5,364.5 C 1051.35,364.03 1053.68,364.863 1055.5,367C 1053.7,369.103 1051.36,369.936 1048.5,369.5C 1048.5,367.833 1048.5,366.167 1048.5,364.5 Z"/></g>
<g><path style="opacity:0.829" fill="#028737" d="M 1074.5,350.5 C 1076.47,350.261 1078.3,350.594 1080,351.5C 1083.23,358.955 1086.73,366.288 1090.5,373.5C 1086.91,375.3 1084.24,374.466 1082.5,371C 1078.79,370.175 1075.12,370.341 1071.5,371.5C 1069.57,374.268 1066.91,375.102 1063.5,374C 1067.31,366.221 1070.97,358.387 1074.5,350.5 Z M 1076.5,359.5 C 1078.54,360.911 1079.54,362.911 1079.5,365.5C 1077.71,365.785 1076.05,365.452 1074.5,364.5C 1075.46,362.925 1076.12,361.258 1076.5,359.5 Z"/></g>
<g><path style="opacity:0.816" fill="#028737" d="M 1094.5,350.5 C 1096.5,350.5 1098.5,350.5 1100.5,350.5C 1100.5,356.833 1100.5,363.167 1100.5,369.5C 1104.17,369.5 1107.83,369.5 1111.5,369.5C 1111.5,371.167 1111.5,372.833 1111.5,374.5C 1105.83,374.5 1100.17,374.5 1094.5,374.5C 1094.5,366.5 1094.5,358.5 1094.5,350.5 Z"/></g>
<g><path style="opacity:0.85" fill="#028737" d="M 1115.5,350.5 C 1117.5,350.5 1119.5,350.5 1121.5,350.5C 1121.5,353.5 1121.5,356.5 1121.5,359.5C 1124.17,359.5 1126.83,359.5 1129.5,359.5C 1129.5,356.5 1129.5,353.5 1129.5,350.5C 1131.17,350.5 1132.83,350.5 1134.5,350.5C 1134.5,358.5 1134.5,366.5 1134.5,374.5C 1132.83,374.5 1131.17,374.5 1129.5,374.5C 1129.5,371.167 1129.5,367.833 1129.5,364.5C 1126.83,364.5 1124.17,364.5 1121.5,364.5C 1121.5,367.833 1121.5,371.167 1121.5,374.5C 1119.5,374.5 1117.5,374.5 1115.5,374.5C 1115.5,366.5 1115.5,358.5 1115.5,350.5 Z"/></g>
<g><path style="opacity:0.844" fill="#028737" d="M 1147.5,350.5 C 1160.82,348.656 1166.65,354.323 1165,367.5C 1158.15,377.295 1150.48,377.961 1142,369.5C 1138.77,361.532 1140.6,355.199 1147.5,350.5 Z M 1150.5,355.5 C 1157.17,355.005 1160.34,358.005 1160,364.5C 1156.55,370.353 1152.22,371.019 1147,366.5C 1145.26,361.962 1146.43,358.296 1150.5,355.5 Z"/></g>
<g><path style="opacity:0.901" fill="#028737" d="M 1183.5,350.5 C 1185.17,350.5 1186.83,350.5 1188.5,350.5C 1188.5,356.833 1188.5,363.167 1188.5,369.5C 1192.5,369.5 1196.5,369.5 1200.5,369.5C 1200.5,371.167 1200.5,372.833 1200.5,374.5C 1194.83,374.5 1189.17,374.5 1183.5,374.5C 1183.5,366.5 1183.5,358.5 1183.5,350.5 Z"/></g>
<g><path style="opacity:0.818" fill="#028737" d="M 1199.5,350.5 C 1205.5,350.5 1211.5,350.5 1217.5,350.5C 1217.5,352.167 1217.5,353.833 1217.5,355.5C 1215.5,355.5 1213.5,355.5 1211.5,355.5C 1211.5,361.833 1211.5,368.167 1211.5,374.5C 1209.5,374.5 1207.5,374.5 1205.5,374.5C 1205.5,368.167 1205.5,361.833 1205.5,355.5C 1203.5,355.5 1201.5,355.5 1199.5,355.5C 1199.5,353.833 1199.5,352.167 1199.5,350.5 Z"/></g>
<g><path style="opacity:0.817" fill="#028737" d="M 1222.5,350.5 C 1228.76,349.872 1234.76,350.705 1240.5,353C 1246.01,359.942 1245.68,366.609 1239.5,373C 1233.96,374.404 1228.29,374.904 1222.5,374.5C 1222.5,366.5 1222.5,358.5 1222.5,350.5 Z M 1228.5,354.5 C 1237.76,355.199 1240.43,359.699 1236.5,368C 1233.99,369.252 1231.32,369.752 1228.5,369.5C 1228.5,364.5 1228.5,359.5 1228.5,354.5 Z"/></g>
<g><path style="opacity:0.83" fill="#028737" d="M 1256.5,350.5 C 1258.29,350.215 1259.95,350.548 1261.5,351.5C 1264.88,359.148 1268.55,366.648 1272.5,374C 1269.09,375.102 1266.43,374.268 1264.5,371.5C 1260.88,370.341 1257.21,370.175 1253.5,371C 1251.76,374.466 1249.09,375.3 1245.5,373.5C 1249.45,365.929 1253.12,358.262 1256.5,350.5 Z M 1258.5,359.5 C 1262.93,363.558 1262.26,365.558 1256.5,365.5C 1256.6,363.297 1257.27,361.297 1258.5,359.5 Z"/></g>
</svg>
